<svg
  width="495"
  height="436"
  viewBox="0 0 495 436"
  fill="none"
  xmlns="http://www.w3.org/2000/svg"
>
  <g clip-path="url(#clip0_4_9)">
    <g opacity="0.4">
      <path
        d="M189.703 278.983C189.64 278.899 189.578 278.818 189.512 278.739C187.977 276.747 186.197 274.689 184.156 272.553C177.325 265.404 169.362 260.222 161.558 256.805C161.474 256.764 161.392 256.729 161.308 256.696C146.617 250.326 132.516 250.196 127.557 254.924C127.383 255.09 127.215 255.274 127.052 255.472L126.902 255.66C122.179 261.84 122.823 281.711 133.174 299.645L133.372 299.984C135.862 304.245 138.905 308.396 142.56 312.217C160.419 330.905 173.384 329.277 184.189 320.716C184.289 320.637 184.387 320.558 184.488 320.48C184.55 320.428 184.613 320.376 184.675 320.325C184.92 320.127 185.162 319.926 185.404 319.72C186.143 319.09 186.871 318.428 187.591 317.741C189.477 315.944 191.181 314.077 192.629 312.122C198.224 304.563 199.969 295.666 193.281 284.265C192.281 282.561 191.094 280.802 189.703 278.983Z"
        fill="#FDB4CD"
      />
      <path
        d="M174.254 304.43C168.841 296.515 163.129 288.809 156.862 281.603C156.811 281.54 156.756 281.481 156.705 281.418C151.884 275.892 146.734 270.659 141.139 265.86C136.701 262.052 132.006 258.567 127.054 255.469L126.905 255.657C143.908 266.313 157.376 281.388 169.102 297.568C169.148 297.633 169.197 297.701 169.243 297.764C171.862 301.385 174.392 305.057 176.86 308.748C179.104 312.114 181.311 315.507 183.488 318.919C183.822 319.437 184.156 319.961 184.488 320.48C184.55 320.428 184.613 320.376 184.675 320.325C184.118 319.448 183.558 318.569 182.999 317.695C180.189 313.308 177.338 308.938 174.39 304.628C174.346 304.566 174.303 304.498 174.257 304.433L174.254 304.43Z"
        fill="white"
      />
      <path
        d="M156.599 281.551C156.498 281.671 156.686 281.825 156.783 281.703C156.811 281.668 156.838 281.638 156.862 281.603C159.957 277.795 160.821 272.551 161.381 267.814C161.811 264.155 161.865 260.467 161.561 256.802C161.476 256.761 161.395 256.726 161.311 256.694C161.612 260.198 161.582 263.724 161.207 267.233C160.686 272.078 159.86 277.518 156.707 281.421C156.672 281.467 156.639 281.508 156.601 281.554L156.599 281.551Z"
        fill="white"
      />
      <path
        d="M169.237 297.495C169.191 297.519 169.145 297.544 169.099 297.568C158.262 303.347 144.593 304.343 133.174 299.645L133.373 299.984C144.805 304.582 158.441 303.542 169.24 297.766C169.267 297.753 169.294 297.736 169.322 297.723C169.455 297.65 169.373 297.424 169.237 297.498V297.495Z"
        fill="white"
      />
      <path
        d="M174.142 304.528C174.028 304.628 174.164 304.824 174.281 304.72C174.316 304.688 174.354 304.658 174.387 304.625C181.969 297.973 187.371 288.82 189.703 278.983C189.64 278.899 189.578 278.818 189.512 278.739C187.216 288.589 181.836 297.769 174.254 304.43C174.216 304.463 174.18 304.495 174.142 304.528Z"
        fill="white"
      />
    </g>
    <g opacity="0.4">
      <path
        d="M255.34 271.671C255.44 271.538 255.535 271.408 255.639 271.283C258.06 268.143 260.867 264.896 264.087 261.525C274.865 250.247 287.425 242.072 299.738 236.681C299.868 236.619 300.001 236.562 300.132 236.507C323.309 226.456 345.551 226.25 353.377 233.712C353.652 233.972 353.918 234.263 354.174 234.578L354.41 234.873C361.858 244.623 360.845 275.971 344.516 304.264L344.203 304.799C340.276 311.525 335.475 318.069 329.711 324.098C301.537 353.58 281.082 351.01 264.038 337.506C263.881 337.382 263.726 337.257 263.568 337.132C263.47 337.05 263.373 336.972 263.275 336.888C262.889 336.575 262.508 336.255 262.125 335.935C260.96 334.941 259.81 333.899 258.671 332.816C255.699 329.98 253.008 327.037 250.723 323.951C241.897 312.025 239.144 297.989 249.693 280.004C251.272 277.317 253.144 274.543 255.337 271.674L255.34 271.671Z"
        fill="#FDB4CD"
      />
      <path
        d="M279.71 311.816C288.248 299.33 297.259 287.172 307.148 275.805C307.23 275.707 307.314 275.612 307.398 275.515C315.001 266.796 323.129 258.542 331.956 250.969C338.956 244.962 346.364 239.463 354.176 234.58L354.413 234.876C327.589 251.686 306.344 275.468 287.843 300.994C287.77 301.094 287.694 301.203 287.62 301.303C283.49 307.014 279.495 312.809 275.604 318.631C272.06 323.94 268.582 329.293 265.147 334.675C264.617 335.495 264.095 336.317 263.571 337.137C263.473 337.056 263.375 336.977 263.278 336.893C264.155 335.509 265.038 334.122 265.924 332.743C270.356 325.821 274.857 318.93 279.503 312.128C279.571 312.027 279.639 311.921 279.713 311.821L279.71 311.816Z"
        fill="white"
      />
      <path
        d="M307.564 275.721C307.721 275.911 307.428 276.152 307.273 275.962C307.232 275.908 307.186 275.859 307.148 275.805C302.265 269.798 300.903 261.525 300.02 254.055C299.341 248.282 299.257 242.463 299.738 236.684C299.868 236.621 300.001 236.564 300.132 236.51C299.656 242.039 299.702 247.601 300.295 253.135C301.115 260.779 302.42 269.359 307.393 275.515C307.447 275.585 307.499 275.653 307.558 275.724L307.564 275.721Z"
        fill="white"
      />
      <path
        d="M287.629 300.874C287.702 300.915 287.773 300.95 287.846 300.988C304.941 310.103 326.504 311.677 344.521 304.262L344.209 304.796C326.173 312.049 304.662 310.412 287.623 301.295C287.582 301.273 287.536 301.249 287.495 301.227C287.283 301.11 287.414 300.758 287.631 300.872L287.629 300.874Z"
        fill="white"
      />
      <path
        d="M279.887 311.97C280.069 312.128 279.851 312.437 279.669 312.274C279.615 312.223 279.555 312.177 279.503 312.122C267.541 301.626 259.022 287.186 255.343 271.671C255.443 271.538 255.538 271.408 255.641 271.283C259.264 286.82 267.753 301.303 279.713 311.813C279.772 311.864 279.829 311.916 279.889 311.968L279.887 311.97Z"
        fill="white"
      />
    </g>
    <path
      d="M341.233 167.391C341.233 167.391 331.801 169.557 330.116 172.233C328.431 174.909 328.466 190.75 332.931 191.363C337.393 191.977 350.725 184.078 351.774 182.851C352.823 181.624 341.236 167.393 341.236 167.393L341.233 167.391Z"
      fill="#F8B499"
    />
    <path
      d="M343.448 144.042C343.448 144.042 332.295 146.602 330.303 149.769C328.312 152.937 328.352 171.666 333.632 172.388C338.91 173.112 354.671 163.772 355.913 162.32C357.152 160.868 343.45 144.042 343.45 144.042H343.448Z"
      fill="#F8B499"
    />
    <path
      d="M343.448 112.513C343.448 112.513 332.295 115.073 330.303 118.24C328.312 121.408 328.352 140.136 333.632 140.858C338.91 141.583 352.315 134.149 353.554 132.696C354.793 131.244 343.45 112.513 343.45 112.513H343.448Z"
      fill="#F8B499"
    />
    <path
      d="M282.62 149.08C282.927 147.025 274.604 122.616 276.65 122.241C288.406 120.083 328.026 90.3942 343.29 81.5755C354.127 75.3136 361.891 83.9016 356.413 91.2139C343.073 109.025 280.069 166.109 282.62 149.08Z"
      fill="#FBC7B1"
    />
    <g opacity="0.3">
      <path
        d="M412.115 405.087C409.275 407.934 406.074 410.499 402.387 412.103C395.098 415.274 386.777 414.383 378.826 415.048C378.5 415.073 378.179 415.103 377.853 415.138C375.003 415.426 372.209 415.944 369.535 416.957C367.579 417.698 365.562 418.862 364.861 420.833C364.011 423.202 365.399 425.816 367.196 427.578C368.994 429.336 371.236 430.642 372.81 432.607C373.625 433.625 374.204 434.776 374.568 436H308.803L285.221 429.939C283.62 428.883 282.039 427.792 280.482 426.668C279.183 425.735 277.903 424.779 276.639 423.799C276.639 423.799 275.256 421.185 273.15 417.168C272.927 416.748 272.699 416.308 272.462 415.857C272.28 415.513 272.096 415.16 271.908 414.801C264.68 400.988 251.78 376.063 252.489 375.368C253.101 374.766 264.498 372.377 278.482 369.589C282.9 368.707 287.577 367.787 292.254 366.87C305.216 364.329 318.17 361.821 325.605 360.279C329.265 359.517 331.586 358.99 331.909 358.811C333.274 358.048 334.711 357.41 336.192 356.897C337.795 356.341 339.45 355.939 341.13 355.695C342.067 355.559 343.007 355.472 343.953 355.437C344.836 355.404 345.719 355.418 346.597 355.478C347.662 355.548 348.72 355.687 349.766 355.898C351.097 356.164 352.404 356.542 353.676 357.041C354.448 357.342 355.212 357.703 355.953 358.119C356.383 358.358 356.809 358.618 357.217 358.898C357.222 358.898 357.225 358.898 357.231 358.906C360.252 360.944 362.587 363.927 362.646 367.478C362.652 367.749 362.641 368.02 362.622 368.295C362.47 370.585 361.641 372.906 362.364 375.067C363.524 378.536 367.736 379.488 371.543 379.513C372.005 379.513 372.459 379.505 372.905 379.483C379.924 379.141 386.927 378.112 393.946 378.449C400.965 378.788 408.196 380.656 413.428 385.343C415.596 387.284 417.417 389.797 417.852 392.669C417.86 392.721 417.868 392.775 417.876 392.826C417.881 392.881 417.89 392.932 417.895 392.984C418.428 397.566 415.395 401.811 412.12 405.087H412.115Z"
        fill="#FDB4CD"
      />
    </g>
    <path
      d="M390.582 354.039C389.821 356.984 388.432 359.875 386.892 362.483C384.147 367.141 380.84 371.555 376.573 374.877C364.766 384.073 347.654 383.576 335.412 392.194C333.113 393.812 330.88 396.008 330.624 398.806C330.312 402.174 332.996 405.117 335.929 406.811C338.861 408.502 342.219 409.449 344.929 411.482C350.445 415.624 351.97 423.764 349.51 430.205C348.703 432.322 347.54 434.257 346.111 436H226.244C223.035 434.822 219.858 433.554 216.717 432.203C215.537 430.908 168.069 378.769 169.009 377.211C169.539 376.348 181.496 370.444 181.925 370.238C181.952 370.211 194.773 363.892 234.66 344.87C251.935 336.632 266.063 329.857 266.9 329.062C269.919 326.19 273.46 323.843 277.281 322.168C282.582 319.828 288.664 318.732 294.653 319.47C298.99 320.002 303.683 321.763 306.778 324.896C310.45 328.604 310.164 332.121 310.626 335.653V335.658C310.827 337.221 311.164 338.725 312.02 340.042C315.02 344.675 321.961 343.893 327.227 342.265C338.268 338.845 349.016 334.076 360.448 332.925C361.981 332.925 372.277 331.302 381.968 336.334C385.487 338.158 388.976 341.04 390.348 344.789C390.348 344.979 392.085 348.225 390.579 354.042L390.582 354.039Z"
      fill="#FEE6EE"
    />
    <path
      d="M385.18 346.721C384.813 346.765 384.446 346.806 384.079 346.849C375.427 347.891 367.003 349.487 358.842 351.626C358.826 351.632 358.807 351.634 358.79 351.64H358.785C357.834 351.887 356.886 352.142 355.94 352.408C344.171 355.706 332.961 360.146 322.407 365.702C318.912 367.543 315.488 369.505 312.137 371.59C310.265 372.751 308.414 373.954 306.588 375.197C297.49 381.364 288.987 388.446 281.188 396.36C275.166 402.473 270.161 408.491 266.09 413.957C265.104 415.282 264.169 416.576 263.291 417.828C263.038 418.194 262.788 418.55 262.544 418.905C256.997 426.953 253.728 433.253 252.4 435.997H251.092C252.495 433.044 257.057 424.033 265.487 412.801C269.519 407.427 274.435 401.545 280.316 395.573C280.531 395.353 280.748 395.136 280.968 394.916C281.726 394.154 282.495 393.394 283.267 392.647C294.792 381.494 307.743 372.097 321.83 364.676C326.714 362.103 331.738 359.769 336.893 357.671C337.978 357.231 339.065 356.8 340.16 356.382C345.779 354.229 351.548 352.359 357.456 350.774C365.725 348.551 374.264 346.887 383.038 345.79C383.704 345.706 384.373 345.627 385.041 345.549C385.367 345.513 385.658 345.744 385.696 346.067C385.734 346.39 385.5 346.683 385.177 346.721H385.18Z"
      fill="#FDB4CD"
    />
    <path
      d="M272.471 370.775C272.316 368.289 272.384 365.99 272.612 363.876C273.819 352.734 286.422 352.041 288.555 362.994C289.004 365.295 289.292 367.809 289.332 370.52C289.577 386.749 281.272 395.223 281.272 395.223C281.272 395.223 273.56 388.215 272.468 370.775H272.471Z"
      fill="#FDB4CD"
    />
    <path
      d="M397.832 341.076C399.332 341.032 400.713 341.116 401.982 341.295C408.661 342.237 408.83 349.818 402.199 350.882C400.805 351.108 399.289 351.23 397.655 351.203C387.886 351.032 382.951 345.88 382.951 345.88C382.951 345.88 387.321 341.388 397.835 341.076H397.832Z"
      fill="#FDB4CD"
    />
    <path
      d="M337.665 339.588C338.214 337.878 338.863 336.35 339.57 334.99C343.306 327.822 351.953 330.655 350.513 338.573C350.211 340.237 349.744 342.001 349.059 343.833C344.964 354.802 337.16 358.32 337.16 358.32C337.16 358.32 333.82 351.591 337.662 339.588H337.665Z"
      fill="#FDB4CD"
    />
    <path
      d="M327.64 370.406C329.746 370.615 331.662 370.984 333.404 371.465C342.578 373.992 341.442 384.624 331.972 384.917C329.983 384.979 327.836 384.876 325.556 384.542C311.92 382.537 305.95 374.44 305.95 374.44C305.95 374.44 312.874 368.946 327.64 370.409V370.406Z"
      fill="#FDB4CD"
    />
    <path
      d="M371.405 353.99C372.788 354.568 374.011 355.22 375.09 355.907C380.78 359.527 377.791 366.495 371.315 364.725C369.954 364.353 368.522 363.838 367.046 363.137C358.223 358.941 355.867 352.212 355.867 352.212C355.867 352.212 361.704 349.93 371.405 353.993V353.99Z"
      fill="#FDB4CD"
    />
    <path
      d="M289.8 409.375C292.58 409.251 295.145 409.373 297.501 409.669C309.917 411.232 310.442 425.284 298.172 427.447C295.593 427.901 292.781 428.172 289.751 428.164C271.626 428.118 262.329 418.699 262.329 418.699C262.329 418.699 270.308 410.247 289.8 409.375Z"
      fill="#FDB4CD"
    />
    <path
      d="M307.088 418.425C306.018 417.85 304.784 417.537 303.615 417.236C301.477 416.688 299.295 416.302 297.107 416.006C290.357 415.089 283.482 415.037 276.707 415.705C271.886 416.18 267.112 417.043 262.422 418.265C262.239 418.311 262.316 418.596 262.5 418.547C275.392 415.189 289.65 414.245 302.716 417.317C304.126 417.649 305.653 417.985 306.942 418.677C307.107 418.767 307.257 418.515 307.088 418.425Z"
      fill="#FEE6EE"
    />
    <path
      d="M278.949 354.693C281.283 360.757 281.474 367.282 281.569 373.699C281.667 380.474 281.756 387.254 281.392 394.023C281.381 394.211 281.675 394.211 281.686 394.023C282.058 387.11 281.96 380.186 281.857 373.267C281.762 366.967 281.525 360.564 279.234 354.615C279.166 354.441 278.884 354.517 278.952 354.693H278.949Z"
      fill="#FEE6EE"
    />
    <path
      d="M306.48 374.69C312.531 373.335 318.825 373.251 324.901 374.513C329.915 375.555 335.923 377.401 338.312 382.385C338.393 382.556 338.646 382.406 338.564 382.238C336.206 377.309 330.36 375.403 325.398 374.32C319.143 372.955 312.643 373.009 306.401 374.407C306.216 374.448 306.295 374.73 306.48 374.69Z"
      fill="#FEE6EE"
    />
    <path
      d="M376.802 364.153C373.236 356.634 365.079 351.797 356.763 352.272C356.576 352.283 356.576 352.576 356.763 352.565C364.986 352.096 373.024 356.867 376.549 364.302C376.631 364.473 376.883 364.324 376.802 364.155V364.153Z"
      fill="#FEE6EE"
    />
    <path
      d="M337.567 358.211C342.627 350.177 345.44 340.888 345.692 331.399C345.698 331.212 345.404 331.212 345.399 331.399C345.149 340.839 342.347 350.068 337.314 358.062C337.214 358.222 337.467 358.368 337.567 358.208V358.211Z"
      fill="#FEE6EE"
    />
    <path
      d="M383.315 346.301C390.731 343.608 400.044 341.201 406.669 347.028C406.811 347.153 407.017 346.947 406.876 346.822C400.166 340.921 390.761 343.285 383.237 346.018C383.06 346.084 383.136 346.366 383.315 346.301Z"
      fill="#FEE6EE"
    />
    <path
      d="M202.303 432.469C199.382 433.725 196.431 434.903 193.447 435.997H82.0317C80.7056 434.38 79.624 432.577 78.874 430.609C76.5886 424.622 78.0044 417.057 83.1323 413.205C85.6486 411.316 88.771 410.434 91.4966 408.865C94.2222 407.291 96.7195 404.558 96.4287 401.425C96.1896 398.825 94.1135 396.784 91.9776 395.28C80.5969 387.268 64.6998 387.737 53.7186 379.184C49.7511 376.096 46.6804 371.994 44.1287 367.665C41.1884 362.681 38.8433 356.599 40.9139 351.216C40.9139 351.189 41.0525 350.874 41.0634 350.847C42.4846 347.506 45.4738 345.03 48.7049 343.356C56.4985 339.309 65.833 339.298 74.4337 341.07C83.0344 342.845 91.1922 346.268 99.5837 348.866C104.491 350.383 110.926 351.105 113.717 346.8C115.345 344.287 114.964 340.978 115.589 338.171C116.91 331.931 123.519 328.46 129.859 327.681C134.954 327.054 140.348 327.822 145.411 329.933C145.427 329.939 145.577 330.001 145.65 330.037C153.416 333.329 160.112 339.672 163.188 347.775C163.205 347.807 195.08 416.826 202.306 432.466L202.303 432.469Z"
      fill="#FEE6EE"
    />
    <path
      d="M160.843 400.065C160.843 400.065 185.607 234.588 185.939 227.276C186.477 215.499 263.106 232.121 258.623 249.085C250.617 279.38 266.087 400.065 266.087 400.065H160.84H160.843Z"
      fill="#FBC7B1"
    />
    <path
      d="M193.127 236.784C193.127 236.784 178.172 226.758 180.433 205.024C182.694 183.291 196.023 167.092 208.355 158.55C228.611 144.517 234.027 143.904 229.818 152.638C227.475 157.5 232.815 179.165 252.152 178.24C268.212 177.472 234.07 258.279 193.127 236.784Z"
      fill="#FBC7B1"
    />
    <path
      d="M184.564 227.591C186.825 231.562 191.455 234.008 195.469 235.848C195.784 235.992 196.059 235.528 195.741 235.381C191.806 233.579 187.241 231.201 185.029 227.317C184.857 227.016 184.39 227.287 184.561 227.588L184.564 227.591Z"
      fill="#F18E7B"
    />
    <path
      d="M236.549 254.571C242.459 258.135 250.402 258.219 257.071 257.684C257.416 257.657 257.419 257.117 257.071 257.144C250.476 257.671 242.66 257.622 236.82 254.104C236.522 253.925 236.25 254.392 236.549 254.571Z"
      fill="#F18E7B"
    />
    <path
      d="M209.45 131.728C211.945 148.619 204.822 162.429 205.899 165.89C206.972 169.345 212.344 184.67 212.344 184.67C212.344 184.67 181.134 220.792 180.24 211.186C179.083 198.792 180.545 164.375 184.98 153.689C188.686 144.756 190.219 135.802 191.04 128.481C191.982 120.075 191.993 113.81 193.298 112.166C193.398 112.03 193.51 111.929 193.627 111.856C196.583 110.076 206.918 114.598 209.45 131.73V131.728Z"
      fill="#FBC7B1"
    />
    <path
      d="M198.314 121.18C197.662 128.815 195.249 128.538 191.037 128.478C190.659 120.186 191.224 113.873 193.295 112.163C194.243 112.019 196.287 112.744 196.825 113.629C197.901 115.39 198.48 119.239 198.314 121.18Z"
      fill="#FFD5C2"
    />
    <path
      d="M140.074 107.782L152.783 105.043C154.202 104.737 155.297 106.105 154.637 107.359L148.721 118.582C148.46 119.079 148.463 119.657 148.734 120.127L154.835 130.731C155.514 131.915 154.444 133.394 153.022 133.234L140.278 131.803C139.712 131.741 139.139 131.947 138.742 132.36L129.804 141.654C128.807 142.691 127.052 142.237 126.832 140.886L124.872 128.78C124.785 128.242 124.427 127.794 123.91 127.58L112.285 122.719C110.989 122.176 110.973 120.417 112.261 119.741L123.793 113.688C124.304 113.42 124.655 112.934 124.734 112.391L126.486 100.092C126.682 98.7216 128.429 98.0865 129.443 99.0202L138.53 107.386C138.932 107.758 139.509 107.904 140.074 107.785V107.782Z"
      fill="#FDB4CD"
    />
    <path
      d="M131.783 104.104C132.992 104.495 136.769 108.39 138.606 108.857C141.136 109.503 149.31 106.821 150.03 107.684C151.308 109.215 141.272 113.835 137.003 112.917C132.987 112.054 128.245 102.956 131.785 104.104H131.783Z"
      fill="#FEE6EE"
    />
    <path
      d="M414.387 79.1163L425.123 86.0839C426.322 86.8602 426.123 88.5756 424.792 88.9828L412.835 92.6444C412.305 92.8072 411.906 93.2116 411.764 93.7246L408.582 105.342C408.226 106.639 406.449 106.916 405.574 105.814L397.729 95.9287C397.381 95.4917 396.837 95.2338 396.275 95.2447L383.571 95.4564C382.152 95.4808 381.253 93.9391 382.044 92.8506L389.15 83.0792C389.465 82.6476 389.53 82.083 389.324 81.5755L384.655 70.0886C384.133 68.8074 385.353 67.5751 386.72 68.004L398.957 71.8501C399.501 72.0211 400.082 71.9289 400.517 71.6059L410.335 64.2935C411.43 63.4765 413.088 64.2583 413.137 65.6127L413.593 77.7619C413.612 78.2993 413.908 78.8069 414.384 79.1136L414.387 79.1163Z"
      fill="#FDB4CD"
    />
    <path
      d="M411.202 70.778C411.767 71.8936 411.667 77.2299 412.612 78.8394C413.917 81.0543 421.466 84.8978 421.362 85.997C421.178 87.9513 410.982 84.154 408.661 80.5386C406.479 77.1376 409.55 67.5127 411.205 70.7807L411.202 70.778Z"
      fill="#FEE6EE"
    />
    <path
      d="M363.948 20.6856C361.1 21.4348 358.271 22.6671 357.296 22.3061C354.6 21.3045 354.174 6.43831 351.067 7.1386C349.163 7.56746 348.921 8.04246 348.133 18.9349C347.763 24.0487 341.817 26.155 341.521 29.4528C341.521 29.4528 344.546 43.6296 347.048 46.4063C348.847 48.404 366.975 44.4819 370.057 42.3647C373.084 40.2829 371.239 38.0056 370.965 37.6961C373.821 36.4503 372.739 32.2105 370.761 31.8061C370.755 31.8061 373.446 26.6842 369.223 25.0584C370.984 23.4407 369.94 19.1114 363.951 20.6884L363.948 20.6856Z"
      fill="#FFBF61"
    />
    <path
      d="M343.407 25.7315L334.749 27.4415C333.467 27.694 332.646 28.9588 332.937 30.2318L336.975 47.8557C337.271 49.1532 338.603 49.9349 339.882 49.563L348.263 47.131C348.638 47.0225 348.864 46.6397 348.777 46.257L344.209 26.2554C344.124 25.8917 343.768 25.661 343.402 25.7315H343.407Z"
      fill="#9C3DFA"
    />
    <path
      d="M294.492 37.9262C302.021 30.4065 302.021 18.2148 294.492 10.6952C286.964 3.17558 274.758 3.17557 267.23 10.6952C259.701 18.2148 259.701 30.4066 267.23 37.9262C274.758 45.4458 286.964 45.4458 294.492 37.9262Z"
      fill="#FFBF61"
    />
    <path
      d="M270.655 28.929C270.655 28.929 282.83 27.5094 291.808 21.9152C291.808 21.9152 293.096 31.2307 284.148 34.1974C275.145 37.1831 270.655 28.929 270.655 28.929Z"
      fill="white"
    />
    <path
      d="M270.821 21.4077C270.327 19.9202 270.832 18.4111 271.949 18.0419C273.066 17.6701 274.373 18.5766 274.867 20.0668C275.362 21.5569 274.857 23.0634 273.74 23.4325C272.623 23.8044 271.316 22.8978 270.821 21.4077Z"
      fill="#190109"
    />
    <path
      d="M283.123 17.3281C282.628 15.8406 283.134 14.3315 284.251 13.9623C285.368 13.5905 286.675 14.4971 287.169 15.9872C287.664 17.4773 287.158 18.9838 286.042 19.3529C284.925 19.7248 283.618 18.8182 283.123 17.3281Z"
      fill="#190109"
    />
    <path
      d="M335.018 76.9747V264.622C335.018 271.044 329.806 276.25 323.377 276.25H219.268C213.684 276.25 209.013 272.314 207.888 267.07C207.719 266.281 207.63 265.461 207.63 264.622V76.9747C207.63 75.8401 207.793 74.7463 208.097 73.7094C209.507 68.878 213.975 65.3467 219.268 65.3467H323.377C329.806 65.3467 335.018 70.5527 335.018 76.9747Z"
      fill="#FFEBD9"
    />
    <path
      d="M323.374 277.629H219.268C212.086 277.629 206.244 271.793 206.244 264.619V76.9747C206.244 69.8008 212.086 63.9651 219.268 63.9651H323.374C330.556 63.9651 336.399 69.8008 336.399 76.9747V264.619C336.399 271.793 330.556 277.629 323.374 277.629ZM219.271 66.731C213.616 66.731 209.015 71.3263 209.015 76.9747V264.619C209.015 270.268 213.616 274.863 219.271 274.863H323.377C329.032 274.863 333.632 270.268 333.632 264.619V76.9747C333.632 71.3263 329.032 66.731 323.377 66.731H219.271Z"
      fill="#190109"
    />
    <path
      d="M319.072 148.07C315.053 161.815 300.305 177.74 271.821 188.904V189.018C271.772 188.999 271.726 188.98 271.677 188.961C271.628 188.98 271.582 188.999 271.533 189.018V188.904C219.972 168.696 213.279 132.425 234.021 122.572C235.133 122.043 236.323 121.592 237.587 121.22C255.53 115.979 271.533 140.117 271.533 140.117C271.533 140.117 272.481 138.717 274.169 136.659C275.158 135.452 276.403 134.018 277.862 132.509C284.283 125.862 294.811 117.771 305.77 121.218C317.537 124.92 322.719 135.595 319.072 148.065V148.07Z"
      fill="#FA3D7C"
    />
    <path
      d="M341.79 113.08C341.79 113.08 329.692 116.587 331.662 129.252C333.632 141.92 351.837 136.309 354.793 131.242C357.75 126.174 350.288 109.21 341.79 113.078V113.08Z"
      fill="#FBC7B1"
    />
    <path
      d="M344.057 117.426C342.04 117.507 336.507 118.919 336.507 120.276C336.507 121.633 342.643 126.654 343.448 130.59C344.252 134.526 350.736 127.211 351.182 125.637C351.929 122.99 349.347 117.211 344.054 117.426H344.057Z"
      fill="#FFCFBC"
    />
    <path
      d="M347.717 142.661C347.717 142.661 328.355 147.343 331.662 160.784C334.725 173.232 355.016 164.147 359.13 159.964C363.456 155.57 359.905 139.811 347.717 142.661Z"
      fill="#FBC7B1"
    />
    <path
      d="M346.63 147.954C344.614 148.035 336.507 150.448 336.507 151.805C336.507 153.162 342.643 158.184 343.448 162.119C344.252 166.055 352.163 158.01 352.608 156.436C353.356 153.789 351.921 147.739 346.63 147.954Z"
      fill="#FFCFBC"
    />
    <path
      d="M344.845 166.223C344.845 166.223 328.469 170.184 331.265 181.551C333.855 192.08 351.016 184.396 354.497 180.859C358.155 177.143 355.152 163.816 344.845 166.226V166.223Z"
      fill="#FBC7B1"
    />
    <path
      d="M343.923 170.699C342.219 170.77 335.363 172.808 335.363 173.957C335.363 175.105 340.554 179.35 341.233 182.68C341.912 186.008 348.603 179.206 348.98 177.873C349.611 175.634 348.399 170.517 343.923 170.699Z"
      fill="#FFCFBC"
    />
    <path
      d="M277.536 436H139.087C140.057 418.039 144.321 345.587 148.126 328.093C152.408 308.39 172.55 308.624 172.55 308.624L178.575 279.157C178.575 279.157 210.412 293.909 256.204 282.26L258.106 310.187C258.106 310.187 268.973 304.807 279.756 314.359C290.542 323.913 277.536 436 277.536 436Z"
      fill="#FA3D7C"
    />
    <path
      d="M172.55 307.098C172.55 307.098 184.379 305.757 189.27 311.691C194.162 317.624 216.988 306.767 228.763 313.099C240.538 319.432 258.106 308.662 258.106 308.662L257.791 304.047C257.791 304.047 243.174 311.107 236.421 308.754C229.668 306.401 202.858 311.832 198.146 309.568C193.436 307.304 173.555 302.174 173.555 302.174L172.55 307.093V307.098Z"
      fill="#F90657"
    />
    <path
      d="M206.774 312.198C199.993 311.829 193.684 314.861 188.656 319.228C182.914 324.217 179.069 330.848 175.534 337.482C173.362 341.553 171.267 345.666 168.846 349.596C168.732 349.783 169.025 349.954 169.14 349.767C174.257 341.464 177.871 332.17 184.034 324.529C189.548 317.695 197.637 312.041 206.774 312.538C206.991 312.548 206.991 312.209 206.774 312.198Z"
      fill="white"
    />
    <path
      d="M228.703 312.787C235.038 318.281 237.6 326.522 239.826 334.314C239.875 334.483 240.098 334.466 240.155 334.314C240.861 332.349 241.78 330.509 242.913 328.755C243.033 328.571 242.739 328.403 242.619 328.584C241.467 330.36 240.543 332.232 239.826 334.225H240.155C237.913 326.38 235.32 318.077 228.945 312.548C228.782 312.405 228.54 312.646 228.706 312.787H228.703Z"
      fill="white"
    />
    <path
      d="M258.006 308.396C256.226 309.587 255.568 311.715 255.095 313.702C254.462 316.354 254.359 319.079 254.712 321.78C254.739 321.994 255.079 321.997 255.052 321.78C254.745 319.435 254.775 317.079 255.218 314.752C255.631 312.589 256.237 309.989 258.18 308.689C258.359 308.567 258.19 308.273 258.008 308.396H258.006Z"
      fill="white"
    />
    <path
      d="M186.216 342.104C189.241 335.023 192.371 327.825 197.73 322.154C197.632 322.114 197.537 322.076 197.439 322.035C197.79 325.411 198.583 328.69 199.828 331.85C199.907 332.051 200.235 331.964 200.157 331.76C198.923 328.628 198.127 325.384 197.779 322.038C197.765 321.902 197.599 321.802 197.488 321.918C192.11 327.61 188.958 334.83 185.923 341.939C185.838 342.137 186.129 342.311 186.216 342.11V342.104Z"
      fill="white"
    />
    <path
      d="M179.034 315.371C181.501 315.255 183.952 315.355 186.401 315.675C186.371 315.569 186.344 315.464 186.314 315.36C184.39 316.498 182.463 317.635 180.539 318.77C180.352 318.881 180.523 319.174 180.71 319.063C182.634 317.925 184.561 316.788 186.485 315.651C186.643 315.559 186.556 315.355 186.398 315.336C183.947 315.016 181.499 314.915 179.031 315.032C178.814 315.043 178.811 315.382 179.031 315.371H179.034Z"
      fill="white"
    />
    <path
      d="M229.804 320.876C229.404 319.242 228.638 317.836 227.489 316.609C227.388 316.503 227.195 316.585 227.198 316.728C227.315 321.196 226.437 325.572 224.597 329.643C224.508 329.841 224.801 330.012 224.891 329.814C226.758 325.683 227.657 321.259 227.538 316.726C227.44 316.766 227.345 316.804 227.247 316.845C228.358 318.029 229.092 319.388 229.475 320.963C229.527 321.174 229.856 321.085 229.804 320.873V320.876Z"
      fill="white"
    />
    <path
      d="M259.538 316.047C260.593 322.059 262.837 327.762 266.161 332.881C266.28 333.063 266.574 332.895 266.454 332.71C263.144 327.613 260.916 321.94 259.867 315.958C259.829 315.743 259.503 315.833 259.538 316.047Z"
      fill="white"
    />
    <path
      opacity="0.8"
      d="M311.45 135.511C310.643 131.505 305.675 121.649 297.833 126.454C289.99 131.258 313.14 143.896 311.45 135.511Z"
      fill="white"
    />
    <path
      d="M395.376 149.669L397.454 141.716L377.699 145.063L395.854 159.37L403.416 153.702L395.376 149.669Z"
      fill="#FDB4CD"
    />
    <path
      d="M402.718 147.609L377.699 145.063L425.099 167.046L402.718 147.609Z"
      fill="#FEE6EE"
    />
    <path
      d="M377.699 145.063L397.454 141.716L404.596 130.672L377.699 145.063Z"
      fill="#FEE6EE"
    />
    <path
      d="M404.862 143.621C418.998 143.882 431.387 155.478 433.928 169.147C436.643 183.75 428.596 199.037 416.175 206.669C409.354 210.86 401.359 212.909 393.381 213.004C389.4 213.05 385.413 212.619 381.533 211.731C377.734 210.863 373.834 209.644 370.495 207.6C367.28 205.635 364.617 202.603 364.541 198.673C364.465 194.802 367.071 191.317 371.204 191.578C375.239 191.833 378.62 194.935 381.027 197.921C383.421 200.888 385.229 204.321 386.378 207.953C388.65 215.138 388.321 223.063 385.095 229.906C382.036 236.396 376.66 241.762 370.168 244.827C368.505 245.611 366.774 246.227 364.997 246.697C364.785 246.754 364.875 247.08 365.087 247.025C372.391 245.095 378.805 240.446 383.036 234.203C387.356 227.827 389.006 220.061 387.794 212.47C386.614 205.087 382.59 196.814 375.957 192.859C373.141 191.181 369.399 190.381 366.66 192.653C364.391 194.534 363.812 197.826 364.426 200.586C366.122 208.203 376.169 211.015 382.742 212.339C391.074 214.019 399.881 213.642 407.946 210.895C422.854 205.814 434.284 191.852 434.768 175.87C435.211 161.213 424.689 147.036 410.186 143.89C408.433 143.51 406.653 143.317 404.862 143.285C404.645 143.282 404.645 143.622 404.862 143.624V143.621Z"
      fill="#FDB4CD"
    />
    <path
      d="M166.18 77.447L167.063 84.6888L184.768 87.1425L176.061 74.35L172.735 79.765L166.18 77.447Z"
      fill="#FDB4CD"
    />
    <path
      d="M184.768 87.1425L169.955 74.5726L147.126 72.5124L184.768 87.1425Z"
      fill="#FEE6EE"
    />
    <path
      d="M184.768 87.1425L178.403 64.4618L176.061 74.35L184.768 87.1425Z"
      fill="#FEE6EE"
    />
    <path
      d="M151.821 40.0359C149.718 46.4579 149.696 53.5042 152.422 59.7444C154.889 65.3928 159.381 70.1021 165.167 72.3604C165.346 72.431 165.422 72.1433 165.245 72.0727C154.954 68.0529 149.528 56.7261 150.778 46.0969C151.498 39.9735 154.145 34.1187 157.979 29.3117C161.392 25.0313 165.955 21.3154 171.403 20.0994C172.178 19.9257 172.977 19.8144 173.781 19.7628C173.819 19.6542 173.857 19.5457 173.898 19.4398C163.362 19.9881 154.887 30.6797 151.824 40.0332L151.821 40.0359Z"
      fill="#FDB4CD"
    />
    <path
      d="M185.208 6.06104C196.14 -1.4657 210.594 -1.42227 221.994 5.08932C222.16 5.18432 222.312 4.92918 222.146 4.83418C211.007 -1.52542 196.882 -1.81313 185.969 5.20061C181.107 8.32476 176.952 12.7572 174.496 18.0148C174.278 18.4789 174.08 18.9567 173.898 19.4452C174.004 19.4398 174.113 19.4371 174.221 19.4344C174.36 19.0652 174.509 18.7042 174.67 18.3568C176.931 13.3978 180.738 9.14448 185.211 6.06647L185.208 6.06104Z"
      fill="#FDB4CD"
    />
    <path
      d="M186.069 25.1018C187.803 27.6207 188.238 30.8968 185.868 33.1769C183.743 35.2234 180.515 35.6659 177.917 34.306C172.536 31.4886 172.289 24.8603 174.104 19.7492C173.996 19.7547 173.89 19.7601 173.781 19.7655C172.074 24.6051 172.197 30.3893 176.588 33.7957C178.463 35.2506 180.844 35.7934 183.134 35.0931C185.382 34.4064 187.412 32.6123 187.792 30.2156C188.667 24.7137 182.539 20.6259 177.887 19.7248C176.642 19.4832 175.417 19.3937 174.218 19.4317C174.178 19.5375 174.14 19.6434 174.102 19.7492C178.656 19.5484 183.439 21.2801 186.067 25.1018H186.069Z"
      fill="#FDB4CD"
    />
    <path
      d="M173.781 19.7663C173.89 19.7581 173.996 19.7527 174.105 19.75C174.143 19.6439 174.181 19.5378 174.222 19.4317C174.113 19.4344 174.007 19.4371 173.898 19.4426C173.857 19.5487 173.819 19.6575 173.781 19.7663Z"
      fill="#FDB4CD"
    />
    <path
      d="M239.224 41.4513C240.263 34.3947 235.379 27.8326 228.314 26.7943C221.249 25.7561 214.679 30.6349 213.64 37.6915C212.6 44.748 217.485 51.3102 224.55 52.3485C231.614 53.3867 238.184 48.5079 239.224 41.4513Z"
      fill="#FFBF61"
    />
    <path
      d="M222.774 35.3863C223.016 37.2266 222.1 39.8839 219.304 42.6905L219.309 42.704H219.29L219.277 42.7203L219.271 42.7067C212.102 42.9972 209.412 39.0479 211.358 36.7977C211.461 36.6783 211.581 36.5616 211.711 36.453C213.564 34.895 216.725 36.9253 216.725 36.9253C216.725 36.9253 216.763 36.7109 216.858 36.377C216.912 36.1816 216.986 35.9481 217.078 35.693C217.491 34.5693 218.317 33.0628 219.798 32.9C221.388 32.7263 222.559 33.7224 222.779 35.389L222.774 35.3863Z"
      fill="#FA3D7C"
    />
    <path
      d="M237.062 29.1054C237.304 30.9457 236.388 33.603 233.592 36.4096L233.598 36.4231H233.578C233.578 36.4231 233.57 36.434 233.565 36.4394L233.559 36.4259C226.391 36.7163 223.701 32.7643 225.646 30.5168C225.75 30.3974 225.869 30.2807 226 30.1721C227.853 28.6141 231.013 30.6444 231.013 30.6444C231.013 30.6444 231.051 30.43 231.146 30.0961C231.201 29.9007 231.274 29.6673 231.366 29.4121C231.78 28.2884 232.606 26.782 234.087 26.6191C235.676 26.4454 236.848 27.4415 237.068 29.1081L237.062 29.1054Z"
      fill="#FA3D7C"
    />
    <path
      d="M221.293 43.483C221.293 43.483 228.062 42.0743 232.79 38.429C232.79 38.429 234.059 43.7056 229.195 45.8445C224.301 47.9969 221.293 43.483 221.293 43.483Z"
      fill="white"
    />
    <path
      d="M439.024 202.452C444.007 196.165 442.945 187.034 436.651 182.056C430.357 177.079 421.215 178.14 416.232 184.427C411.249 190.714 412.311 199.845 418.605 204.822C424.899 209.8 434.041 208.738 439.024 202.452Z"
      fill="#FFBF61"
    />
    <path
      d="M427.947 187.172C426.7 188.844 423.876 190.269 419.422 190.348L419.417 190.364C419.417 190.364 419.406 190.354 419.401 190.348C419.392 190.348 419.387 190.348 419.379 190.348L419.384 190.332C413.373 184.958 414.305 179.667 417.637 179.374C417.816 179.358 418.001 179.358 418.191 179.372C420.906 179.567 421.865 183.674 421.865 183.674C421.865 183.674 422.066 183.53 422.401 183.334C422.596 183.22 422.841 183.087 423.115 182.954C424.33 182.374 426.178 181.804 427.499 182.83C428.917 183.932 429.08 185.652 427.95 187.17L427.947 187.172Z"
      fill="#FA3D7C"
    />
    <path
      d="M444.393 193.285C443.146 194.957 440.322 196.382 435.868 196.461L435.863 196.477C435.863 196.477 435.852 196.466 435.847 196.461C435.838 196.461 435.833 196.461 435.825 196.461L435.83 196.444C429.819 191.07 430.751 185.78 434.083 185.487C434.262 185.471 434.447 185.471 434.637 185.484C437.352 185.68 438.311 189.786 438.311 189.786C438.311 189.786 438.512 189.642 438.847 189.447C439.042 189.333 439.287 189.2 439.561 189.067C440.776 188.486 442.624 187.916 443.945 188.942C445.363 190.044 445.526 191.765 444.396 193.282L444.393 193.285Z"
      fill="#FA3D7C"
    />
    <path
      d="M420.403 192.541C420.403 192.541 426.969 196.702 433.64 197.46C433.64 197.46 430.526 202.709 424.925 200.627C419.292 198.534 420.403 192.541 420.403 192.541Z"
      fill="white"
    />
    <path
      d="M442.784 428.929C442.811 430.121 442.847 431.283 442.841 432.36C442.839 433.003 442.382 433.56 441.749 433.685C440.151 434.002 438.482 433.978 436.841 433.951C431.515 433.858 426.189 433.766 420.862 433.677C420.314 433.668 419.702 433.633 419.4 433.085C419.208 432.737 419.235 432.314 419.417 431.961C419.786 431.25 420.536 430.951 421.248 430.688C424.705 429.407 428.458 428.118 431.053 425.64C431.134 425.561 431.216 425.482 431.297 425.401C431.844 424.847 432.336 424.234 432.754 423.552C433.077 423.026 433.352 422.456 433.51 421.859C433.564 421.652 433.607 421.446 433.629 421.234C433.64 421.153 433.648 421.071 433.651 420.987L435.531 420.903L436.072 420.879L443.341 420.558C442.847 422.396 442.738 424.554 442.743 426.72C442.743 427.461 442.76 428.202 442.776 428.932L442.784 428.929Z"
      fill="#7A525F"
    />
    <path
      d="M451.657 359.012C451.657 359.012 444.309 375.482 444.121 383.704C443.931 392.085 445.374 420.558 445.374 420.558C445.374 420.558 444.083 422.293 438.73 422.765C434.105 423.172 432.227 422.211 432.227 422.211C432.227 422.211 426.89 392.232 426.066 381.079C425.17 368.916 430.754 332.987 430.754 332.987L453.869 330.246L451.654 359.012H451.657Z"
      fill="#9C3DFA"
    />
    <path
      d="M493.541 423.056C494.019 424.147 494.495 425.208 494.899 426.207C495.141 426.804 494.929 427.491 494.394 427.846C493.035 428.747 491.484 429.358 489.956 429.955C484.997 431.893 480.035 433.829 475.073 435.767C474.562 435.965 473.983 436.168 473.494 435.775C473.184 435.525 473.048 435.123 473.081 434.727C473.154 433.929 473.733 433.37 474.29 432.854C477 430.357 479.981 427.74 481.44 424.464C481.486 424.361 481.53 424.255 481.573 424.152C481.869 423.433 482.089 422.678 482.217 421.888C482.315 421.278 482.353 420.648 482.274 420.035C482.247 419.823 482.206 419.617 482.149 419.41C482.127 419.332 482.103 419.253 482.076 419.174L483.785 418.384L484.277 418.156L490.878 415.1C491.119 416.986 491.84 419.022 492.668 421.025C492.951 421.709 493.247 422.391 493.541 423.058V423.056Z"
      fill="#7A525F"
    />
    <path
      d="M470.456 330.243C470.456 330.243 474.616 373.042 477.57 380.715C480.584 388.541 493.956 415.586 493.956 415.586C493.956 415.586 492.829 418.357 488.462 420.556C484.731 422.434 481.801 421.761 481.801 421.761C481.801 421.761 464.88 395.144 459.874 385.142C454.418 374.233 445.912 338.877 445.912 338.877L454.418 323.894L470.459 330.243H470.456Z"
      fill="#9C3DFA"
    />
    <path
      d="M413.585 287.884C413.585 287.884 423.151 267.206 431.099 264.326C435.643 262.681 447.589 271.582 441.684 281.616C432.363 297.454 413.585 287.884 413.585 287.884Z"
      fill="#FF6A51"
    />
    <path
      d="M472.105 330.726C472.105 330.726 472.489 333.02 451.945 334.293C437.328 335.199 430.759 332.84 430.759 332.84C429.583 327.368 428.469 317.502 426.238 304.001C424.716 294.789 424.406 283.769 424.145 271.459C424.134 270.993 428.98 271.079 429.083 270.689C430.216 266.332 433.208 265.93 442.265 267.676C456.325 270.385 473.437 277.04 473.437 277.04C473.437 277.04 470.605 293.879 470.391 312.006C470.32 317.95 471.421 325.053 472.105 330.726Z"
      fill="#FA3D7C"
    />
    <path
      d="M434.113 307.828C434.776 312.641 439.219 316.006 444.037 315.344C444.037 315.344 450.648 316.807 458.649 313.735C484.06 303.977 497.169 296.656 467.85 266.462C459.687 258.056 437.355 259.91 429.083 265.477C425.05 268.191 442.037 274.128 445.559 277.477L463.842 294.867L441.635 297.918C436.817 298.581 433.447 303.019 434.11 307.831L434.113 307.828Z"
      fill="#FA3D7C"
    />
    <path
      d="M435.648 239.531L432.447 236.822C432.447 236.822 430.205 244.637 431.52 246.757C432.836 248.876 435.648 239.531 435.648 239.531Z"
      fill="#190109"
    />
    <path
      d="M444.659 256.2C447.116 257.587 449.822 254.677 453.621 244.889C456.988 236.209 448.575 234.461 448.575 234.461C447.461 234.727 441.423 254.373 444.662 256.202L444.659 256.2Z"
      fill="#190109"
    />
    <path
      d="M440.925 267.146C446.936 267.231 448.567 264.185 448.116 262.329C446.341 255.03 445.795 251.148 445.792 251.132L443.553 252.386L443.018 252.641L438.376 254.853C438.376 254.853 438.385 255.176 438.39 255.695C438.393 256.083 438.395 256.577 438.39 257.133C438.387 257.625 438.376 258.162 438.357 258.71C438.357 258.751 438.357 258.795 438.355 258.835C438.33 259.53 438.292 260.241 438.23 260.882C438.164 261.566 438.075 262.174 437.955 262.627C437.936 262.7 437.914 262.771 437.893 262.836C437.485 264.055 435.167 267.07 440.925 267.146Z"
      fill="#E29171"
    />
    <path
      d="M437.955 262.627V262.633C439.912 262.201 443.714 259.118 443.972 254.913C443.974 254.861 443.33 255.206 443.333 255.152C443.333 255.152 443.121 255.317 442.776 255.581C441.765 256.357 439.616 257.972 438.36 258.71C438.36 258.751 438.36 258.794 438.357 258.835C438.333 259.53 438.295 260.241 438.232 260.882C438.167 261.566 438.078 262.174 437.958 262.627H437.955Z"
      fill="#9B5846"
    />
    <path
      d="M435.882 259.389C444.814 260.667 446.469 250.049 446.469 250.049C449.518 233.391 434.61 234.499 432.058 242.734C429.265 251.748 427.096 258.132 435.882 259.389Z"
      fill="#E29171"
    />
    <path
      d="M440.61 259.118C442.675 257.861 444.094 256.023 445.29 253.958C445.333 253.882 445.208 253.827 445.165 253.901C443.98 255.947 442.578 257.76 440.531 259.004C440.455 259.05 440.534 259.161 440.61 259.115V259.118Z"
      fill="#9B5846"
    />
    <path
      d="M434.95 251.089C434.852 251.338 434.637 251.724 434.787 251.992C434.931 252.248 435.336 252.248 435.567 252.348C435.683 252.4 435.762 252.215 435.643 252.166C435.485 252.098 435.224 252.087 435.097 252.001C434.765 251.778 435.064 251.333 435.17 251.067C435.366 250.584 435.602 250.117 435.808 249.636C436.113 248.933 436.42 248.171 436.194 247.403C436.159 247.28 435.974 247.356 436.01 247.479C436.357 248.67 435.366 250.019 434.947 251.086L434.95 251.089Z"
      fill="#9B5846"
    />
    <path
      d="M439.412 247.612C440.412 247.948 441.26 248.114 441.428 247.617C441.597 247.12 440.98 246.273 439.977 245.934C438.977 245.598 437.972 245.899 437.803 246.396C437.635 246.892 438.409 247.272 439.412 247.612Z"
      fill="#9B5846"
    />
    <path
      d="M433.846 246.542C434.969 246.694 435.893 246.708 435.966 246.187C436.039 245.665 435.211 244.943 434.088 244.789C432.966 244.637 431.974 245.112 431.903 245.633C431.833 246.154 432.727 246.39 433.849 246.542H433.846Z"
      fill="#9B5846"
    />
    <path
      d="M438.393 250.524C438.708 250.589 439.042 250.277 439.137 249.826C439.232 249.376 439.053 248.955 438.735 248.89C438.42 248.825 438.086 249.137 437.991 249.588C437.895 250.038 438.075 250.459 438.393 250.524Z"
      fill="#190109"
    />
    <path
      d="M434.159 249.346C434.474 249.411 434.808 249.099 434.904 248.648C434.999 248.198 434.819 247.777 434.501 247.712C434.186 247.647 433.852 247.959 433.757 248.41C433.662 248.86 433.841 249.281 434.159 249.346Z"
      fill="#190109"
    />
    <path
      d="M432.461 240.229C432.844 240.628 433.442 240.666 433.991 240.69C436.77 240.815 439.531 241.1 442.262 241.545C442.847 241.64 443.499 241.795 443.765 242.349C443.89 242.606 443.906 242.916 443.915 243.214C443.977 245.188 443.512 248.049 444.284 248.23L445.716 249.93C446.483 250.288 447.455 249.539 447.735 248.643C448.015 247.747 447.795 246.808 447.537 245.95C447.464 245.709 447.388 245.465 447.379 245.207C447.369 244.762 447.567 244.327 447.754 243.912C448.681 241.844 449.423 239.689 449.964 237.495C450.132 236.817 450.273 236.065 449.983 235.473C449.817 235.134 449.526 234.892 449.227 234.683C448.341 234.065 447.314 233.663 446.241 233.519C445.54 233.424 444.792 233.427 444.2 233.047C443.858 232.827 443.589 232.49 443.224 232.317C442.401 231.92 441.417 232.447 440.512 232.754C439.703 233.025 438.798 233.109 438.097 232.686C437.779 232.493 437.52 232.205 437.194 232.023C436.352 231.548 435.213 231.901 434.447 232.626C433.681 233.351 433.224 234.371 432.876 235.386C432.572 236.277 432.336 237.189 432.167 238.109C432.031 238.861 431.974 239.729 432.458 240.234L432.461 240.229Z"
      fill="#190109"
    />
    <path
      d="M446.531 252.267C447.936 251.485 448.572 249.951 447.95 248.836C447.33 247.72 445.686 247.451 444.284 248.23C442.879 249.012 442.243 250.546 442.866 251.661C443.485 252.777 445.129 253.046 446.531 252.267Z"
      fill="#E29171"
    />
    <path
      d="M443.858 252.581C443.743 252.562 443.722 252.739 443.836 252.761C444.847 252.934 445.985 252.695 446.882 252.204C447.684 251.767 448.061 250.953 448.254 250.098C448.279 249.987 448.102 249.962 448.075 250.076C447.863 251.002 447.434 251.775 446.534 252.169C445.697 252.538 444.765 252.736 443.855 252.581H443.858Z"
      fill="#9B5846"
    />
    <path
      d="M444.855 249.607C444.67 249.753 444.379 249.992 444.377 250.253C444.377 250.35 444.425 250.426 444.469 250.508C444.621 250.79 444.646 251.048 444.493 251.338C444.434 251.452 444.618 251.528 444.678 251.414C444.798 251.186 444.839 250.934 444.768 250.684C444.743 250.603 444.695 250.532 444.667 250.453C444.559 250.128 444.738 249.949 444.972 249.764C445.072 249.685 444.953 249.525 444.852 249.604L444.855 249.607Z"
      fill="#9B5846"
    />
    <path
      d="M444.015 248.54C444.208 248.353 444.431 248.214 444.686 248.127C444.771 248.1 444.722 247.97 444.64 248C444.363 248.095 444.121 248.247 443.912 248.453C443.849 248.515 443.955 248.6 444.018 248.54H444.015Z"
      fill="#9B5846"
    />
    <path
      d="M437.993 253.523C437.89 253.852 437.727 254.256 437.507 254.514C437.2 254.875 436.743 255.163 436.069 255.193C435.322 255.225 434.779 254.981 434.393 254.655C434.162 254.463 433.952 254.145 433.798 253.865C433.738 253.757 433.749 253.64 433.8 253.548C433.863 253.442 433.982 253.371 434.121 253.39C434.156 253.396 434.189 253.401 434.227 253.404C434.243 253.404 434.26 253.409 434.276 253.409C434.327 253.417 434.382 253.423 434.439 253.428C434.461 253.428 434.482 253.434 434.507 253.437C434.689 253.456 434.89 253.472 435.107 253.48C435.178 253.483 435.249 253.485 435.322 253.485C435.357 253.485 435.393 253.485 435.431 253.485C435.469 253.485 435.504 253.485 435.542 253.485C435.58 253.485 435.618 253.485 435.656 253.485C435.694 253.485 435.732 253.485 435.77 253.483C435.825 253.483 435.882 253.477 435.936 253.477C435.98 253.474 436.026 253.472 436.069 253.466C436.17 253.458 436.276 253.45 436.379 253.437C436.417 253.431 436.455 253.428 436.493 253.423C436.632 253.404 436.773 253.382 436.914 253.355C436.974 253.341 437.037 253.331 437.099 253.317C437.148 253.306 437.2 253.295 437.251 253.282C437.273 253.276 437.292 253.271 437.314 253.266C437.36 253.255 437.406 253.241 437.453 253.227C437.512 253.211 437.575 253.192 437.635 253.173C437.751 253.135 437.866 253.179 437.934 253.257C437.993 253.325 438.02 253.423 437.988 253.523H437.993Z"
      fill="#190109"
    />
    <path
      d="M437.939 253.255C437.366 253.681 436.469 254.183 435.577 254.061C434.868 253.966 434.251 253.746 433.803 253.542C433.865 253.436 433.985 253.366 434.124 253.385C434.159 253.39 434.192 253.396 434.23 253.398C434.246 253.398 434.262 253.404 434.279 253.404C434.33 253.412 434.385 253.417 434.442 253.423C434.463 253.423 434.485 253.428 434.51 253.431C434.692 253.45 434.893 253.466 435.11 253.474C435.181 253.477 435.251 253.48 435.325 253.48C435.36 253.48 435.395 253.48 435.433 253.48C435.471 253.48 435.51 253.48 435.545 253.48C435.583 253.48 435.621 253.48 435.659 253.48C435.697 253.48 435.735 253.48 435.773 253.477C435.827 253.477 435.885 253.472 435.939 253.472C435.982 253.469 436.029 253.466 436.072 253.461C436.173 253.453 436.279 253.445 436.382 253.431C436.42 253.426 436.458 253.423 436.496 253.418C436.635 253.399 436.776 253.377 436.917 253.35C436.977 253.336 437.039 253.325 437.102 253.312C437.154 253.301 437.203 253.29 437.254 253.276C437.276 253.271 437.295 253.265 437.317 253.26C437.363 253.249 437.409 253.236 437.455 253.222C437.515 253.206 437.578 253.187 437.637 253.168C437.754 253.13 437.868 253.173 437.936 253.252L437.939 253.255Z"
      fill="white"
    />
    <path
      d="M437.507 254.511C437.2 254.872 436.743 255.16 436.069 255.19C435.322 255.222 434.779 254.978 434.393 254.652C434.716 254.492 435.338 254.259 436.058 254.362C436.058 254.362 437.069 253.911 437.507 254.514V254.511Z"
      fill="#E55A4D"
    />
    <path
      d="M456.1 313.189C456.562 313.36 456.977 313.406 457.323 313.317C457.415 313.292 457.502 313.257 457.583 313.211C458.094 312.934 458.331 312.296 458.32 311.427C458.298 309.826 457.434 307.429 455.89 305.005C455.38 304.202 454.836 303.461 454.284 302.796C452.263 300.369 450.119 299.009 448.983 299.628C447.534 300.418 448.26 304.112 450.646 307.858C452.388 310.594 454.513 312.608 456.1 313.189Z"
      fill="#190109"
    />
    <path
      d="M449.926 299.273C452.358 298.562 454.738 297.726 457.083 296.805C461.222 295.18 465.255 293.293 469.282 291.371C469.399 291.317 469.326 291.13 469.209 291.184C462.899 294.194 456.581 297.12 449.852 299.086C449.727 299.121 449.803 299.308 449.926 299.273Z"
      fill="white"
    />
    <path
      d="M467.45 291.977C467.529 292.08 467.69 291.96 467.611 291.86L464.203 287.371C464.124 287.267 463.964 287.387 464.043 287.487C465.179 288.983 466.315 290.481 467.45 291.977Z"
      fill="white"
    />
    <path
      d="M431.52 275.265L451.866 276.212C454.135 276.318 455.298 278.978 453.833 280.712L440.703 296.265C440.121 296.955 439.917 297.886 440.154 298.754L445.54 318.376C446.14 320.566 443.966 322.491 441.863 321.636L422.996 313.971C422.159 313.631 421.21 313.724 420.455 314.22L403.435 325.398C401.536 326.644 399.03 325.175 399.194 322.912L400.664 302.62C400.729 301.721 400.346 300.847 399.642 300.283L383.739 287.569C381.965 286.149 382.59 283.315 384.796 282.773L404.571 277.898C405.446 277.681 406.161 277.048 406.479 276.207L413.669 257.171C414.471 255.049 417.362 254.764 418.564 256.694L429.316 273.973C429.792 274.738 430.615 275.221 431.518 275.262L431.52 275.265Z"
      fill="#FFB041"
    />
    <path
      d="M454.222 305.426C454.605 304.688 452.132 301.705 450.415 300.817C448.7 299.93 445.257 298.049 444.931 298.402C443.194 300.283 447.309 302.606 449.026 303.494C450.741 304.381 453.839 306.164 454.222 305.426Z"
      fill="#E29171"
    />
    <path
      d="M440.871 308.605C444.333 308.075 445.252 307.25 445.127 306.428C444.999 305.605 443.874 305.095 440.415 305.624C436.952 306.154 431.686 307.098 431.895 308.455C432.075 309.62 437.412 309.137 440.874 308.605H440.871Z"
      fill="#E29171"
    />
    <path
      d="M442.92 311.487C446.695 310.909 447.705 310.07 447.58 309.248C447.453 308.425 446.238 307.929 442.464 308.507C438.689 309.085 432.947 310.103 433.154 311.46C433.333 312.624 439.146 312.068 442.92 311.49V311.487Z"
      fill="#E29171"
    />
    <path
      d="M445.526 313.615C449.015 312.852 449.923 312.065 449.771 311.37C449.619 310.676 448.464 310.339 444.974 311.104C441.485 311.867 436.181 313.146 436.431 314.288C436.645 315.271 442.037 314.378 445.526 313.615Z"
      fill="#E29171"
    />
    <path
      d="M445.453 305.445C449.273 305.223 450.36 304.482 450.311 303.651C450.263 302.82 449.094 302.212 445.276 302.435C441.455 302.658 435.629 303.133 435.711 304.503C435.779 305.681 441.632 305.668 445.453 305.445Z"
      fill="#E29171"
    />
    <path
      d="M444.931 314.568L451.453 313.992C454.197 313.615 456.111 310.914 455.708 307.988L455.543 306.789C455.233 304.53 452.882 301.906 450.684 300.969L441.643 304.517C440.518 304.672 439.732 305.779 439.898 306.979L442.363 311.978C442.529 313.178 443.803 314.725 444.928 314.571L444.931 314.568Z"
      fill="#E29171"
    />
    <path
      d="M440.526 308.822C441.102 308.797 441.681 308.776 442.257 308.751C442.396 308.746 442.382 308.531 442.243 308.537C441.667 308.561 441.088 308.583 440.512 308.607C440.374 308.613 440.387 308.827 440.526 308.822Z"
      fill="#9B5846"
    />
    <path
      d="M441.637 311.886C441.983 311.818 442.328 311.769 442.675 311.737C442.814 311.723 442.8 311.509 442.662 311.522C442.314 311.555 441.966 311.607 441.624 311.672C441.491 311.699 441.502 311.913 441.637 311.886Z"
      fill="#9B5846"
    />
    <path
      d="M440.08 305.695C440.385 305.722 440.689 305.727 440.993 305.706C441.132 305.695 441.118 305.48 440.98 305.491C440.694 305.513 440.409 305.51 440.121 305.483C439.985 305.47 439.942 305.681 440.08 305.695Z"
      fill="#9B5846"
    />
    <path
      d="M451.363 313.878C453.358 313.27 449.602 312.25 449.458 311.78C449.314 311.311 448.195 312.508 446.203 313.116C444.208 313.724 441.186 314.731 441.423 315.504C441.627 316.169 449.369 314.486 451.363 313.878Z"
      fill="#E29171"
    />
    <path
      d="M443.214 314.288C443.496 314.234 443.773 314.245 444.048 314.318C444.181 314.353 444.224 314.142 444.089 314.106C443.795 314.028 443.496 314.017 443.197 314.074C443.064 314.098 443.075 314.313 443.211 314.288H443.214Z"
      fill="#9B5846"
    />
    <path
      d="M457.616 313.314C460.246 312.535 462.839 311.647 465.412 310.7C467.092 310.084 468.763 309.408 470.486 308.919C470.619 308.881 470.562 308.675 470.429 308.713C468.706 309.202 467.035 309.878 465.355 310.494C462.782 311.438 460.189 312.329 457.559 313.108C457.426 313.146 457.483 313.355 457.616 313.314Z"
      fill="white"
    />
    <path
      d="M446.116 345.717C447.181 348.043 448.306 350.35 449.211 352.744C450.091 355.073 450.708 357.484 451.271 359.905C451.306 360.054 451.537 359.992 451.502 359.842C450.92 357.342 450.279 354.856 449.355 352.459C448.455 350.125 447.363 347.87 446.322 345.598C446.257 345.459 446.053 345.579 446.116 345.717Z"
      fill="white"
    />
    <path
      d="M457.923 338.782C460.032 341.746 463.369 343.576 467.005 343.752C467.16 343.76 467.157 343.521 467.005 343.513C463.456 343.339 460.187 341.553 458.13 338.66C458.04 338.535 457.833 338.655 457.923 338.779V338.782Z"
      fill="white"
    />
    <path
      d="M466.613 343.747C467.597 349.007 468.578 354.27 469.562 359.53C470.505 364.576 471.372 369.644 472.538 374.643C474.766 384.2 478.614 393.225 483.106 401.925C485.687 406.924 488.459 411.818 491.234 416.712C491.31 416.845 491.516 416.726 491.44 416.593C486.551 407.972 481.649 399.322 477.839 390.158C475.964 385.653 474.372 381.03 473.184 376.294C471.921 371.261 471.04 366.142 470.089 361.045C469.008 355.258 467.929 349.471 466.847 343.684C466.82 343.532 466.589 343.597 466.616 343.747H466.613Z"
      fill="white"
    />
    <path
      d="M481.32 420.7C483.894 420.154 486.421 419.397 488.845 418.376C490.69 417.6 492.454 416.601 493.565 414.886C493.649 414.755 493.443 414.636 493.359 414.766C492.114 416.688 490.016 417.673 487.951 418.482C485.777 419.334 483.538 419.988 481.255 420.472C481.106 420.504 481.168 420.735 481.318 420.702L481.32 420.7Z"
      fill="white"
    />
    <path
      d="M393.984 281.616C393.022 279.597 393.609 279.152 394.414 278.769C395.218 278.386 395.933 278.213 396.895 280.232C397.857 282.251 398.726 284.713 397.517 285.289C396.397 285.821 394.943 283.636 393.984 281.616Z"
      fill="#E29171"
    />
    <path
      d="M396.539 280.126C395.411 277.759 395.99 277.292 396.794 276.91C397.598 276.527 398.324 276.375 399.452 278.742C400.579 281.109 401.639 283.97 400.43 284.545C399.31 285.077 397.666 282.49 396.541 280.123L396.539 280.126Z"
      fill="#E29171"
    />
    <path
      d="M398.658 278.975C397.53 276.608 398.109 276.142 398.911 275.759C399.715 275.376 400.441 275.224 401.569 277.591C402.696 279.958 403.756 282.819 402.547 283.394C401.427 283.926 399.783 281.339 398.658 278.973V278.975Z"
      fill="#E29171"
    />
    <path
      d="M401.112 278.058C400.055 275.835 400.634 275.376 401.438 274.996C402.243 274.613 402.965 274.453 404.022 276.676C405.08 278.899 406.063 281.595 404.854 282.17C403.734 282.702 402.169 280.281 401.112 278.058Z"
      fill="#E29171"
    />
    <path
      d="M395.816 278.742C396.539 279.876 397.21 281.038 397.832 282.23C397.914 282.384 398.15 282.249 398.069 282.091C397.446 280.9 396.775 279.738 396.052 278.603C395.957 278.457 395.721 278.593 395.816 278.742Z"
      fill="#9B5846"
    />
    <path
      d="M397.805 276.796C399.02 278.622 400.009 280.56 400.77 282.618C400.829 282.781 401.093 282.71 401.033 282.545C400.264 280.465 399.267 278.503 398.041 276.657C397.944 276.511 397.707 276.649 397.805 276.796Z"
      fill="#9B5846"
    />
    <path
      d="M400.479 276.006C401.566 277.727 402.357 279.567 402.851 281.54C402.895 281.711 403.158 281.638 403.115 281.467C402.612 279.472 401.813 277.607 400.715 275.867C400.623 275.718 400.386 275.857 400.479 276.006Z"
      fill="#9B5846"
    />
    <path
      d="M420.229 266.213C421.922 267.35 426.24 275.202 428.863 276.731C432.477 278.837 445.901 277.966 446.678 279.654C448.056 282.653 431.088 285.856 424.928 282.583C419.134 279.502 415.265 262.877 420.227 266.213H420.229Z"
      fill="#FFC06E"
    />
    <path
      d="M163.164 212.475C152.933 223.851 131.362 232.368 98.7712 229.955L98.7196 230.064C98.6815 230.023 98.6462 229.982 98.6082 229.942C98.5538 229.939 98.4995 229.936 98.4424 229.931L98.494 229.822C58.216 186.551 68.5695 148.545 93.0972 148.64C94.4097 148.643 95.7657 148.76 97.1543 148.988C116.853 152.229 121.081 182.859 121.081 182.859C121.081 182.859 122.644 181.95 125.217 180.748C126.731 180.042 128.593 179.238 130.693 178.459C139.951 175.026 153.835 172.1 162.786 180.482C172.401 189.482 172.444 202.153 163.161 212.472L163.164 212.475Z"
      fill="#FA3D7C"
    />
    <path
      d="M74.5098 243.817C72.9255 244.322 71.3277 244.892 69.6619 244.797C62.5367 244.39 57.2078 250.633 58.4116 254.978C58.6725 255.923 58.0937 256.962 57.3464 257.69C56.7812 258.241 56.0447 258.626 55.4523 259.153C53.9659 260.48 53.6425 262.717 54.705 264.31C55.1534 264.983 55.8436 265.659 55.6616 266.43C55.5692 266.821 55.2594 267.141 54.9904 267.464C53.7023 269.022 53.2675 271.278 54.4795 272.857C55.2268 273.829 56.4632 274.407 57.6969 274.841C62.159 276.413 67.1537 276.581 71.9092 275.851C76.6647 275.121 81.211 273.522 85.5698 271.655C88.5346 270.385 91.4558 268.97 93.9722 267.079C95.0619 266.259 96.0972 265.325 96.6598 264.161C97.2223 262.996 97.2359 261.56 96.388 260.556C95.6081 259.636 94.2222 259.18 93.6298 258.154C93.0591 257.163 93.3988 255.953 93.1733 254.856C92.9722 253.887 92.2955 253.005 91.358 252.489C90.0998 251.797 88.3416 251.672 87.5699 250.548C86.7927 249.417 87.415 247.745 86.4258 246.751C84.9584 245.28 81.7274 246.871 80.1567 245.484C79.7626 245.136 79.5561 244.65 79.1974 244.273C78.1186 243.141 76.0968 243.309 74.5125 243.814L74.5098 243.817Z"
      fill="#190109"
    />
    <path
      d="M55.7594 349.976C55.7594 349.976 44.7211 351.366 44.2211 354.007C43.7129 356.683 45.6722 362.014 57.9279 361.487C71.219 360.914 82.7301 363.032 97.6462 368.96L88.9802 352.272L55.7621 349.979L55.7594 349.976Z"
      fill="#F90657"
    />
    <path
      d="M94.7738 359.012C93.8281 367.179 92.3091 377.436 89.9422 387.156C84.8796 407.945 85.8252 430.485 85.8252 430.485H75.4745C75.4745 430.485 70.2842 395.978 73.4826 382.433C75.3359 374.584 74.6837 365.016 75.9718 354.625C76.9066 347.088 95.8499 349.713 94.7738 359.014V359.012Z"
      fill="#FBC7B1"
    />
    <path
      d="M80.0398 345.997C80.0398 345.997 71.0804 382.1 61.3736 388.524L51.4495 373.283C51.4495 373.283 55.2159 347.894 56.7975 344.984C58.3817 342.074 79.9692 340.525 80.0371 345.999L80.0398 345.997Z"
      fill="#FBC7B1"
    />
    <path
      d="M99.0429 364.03C99.0348 364.112 99.0266 364.193 99.0158 364.272C98.8065 366.153 98.369 367.741 97.6462 368.957C97.2929 369.554 95.6081 370.623 93.0836 371.307C88.7465 372.488 81.9203 372.54 75.0478 367.127C74.6593 366.821 74.2707 366.498 73.8793 366.153C72.6429 365.065 71.4092 363.792 70.1918 362.307C70.0341 362.114 69.8738 361.924 69.7162 361.74C65.015 356.259 59.5557 353.616 54.9034 352.582C49.6234 351.406 45.3814 352.307 44.4575 353.491C44.4575 353.485 44.4629 353.483 44.4657 353.477C44.9059 352.856 48.0146 348.396 50.5392 343.554L50.7239 343.198C51.7702 341.16 52.6995 339.062 53.2729 337.172C56.2186 327.447 58.5801 323.37 60.6807 319.706C60.697 319.673 60.716 319.641 60.7323 319.608C60.7323 319.608 60.7323 319.608 60.7377 319.608C61.9769 317.44 63.1291 315.404 64.2596 312.402C64.7569 311.08 65.2487 309.571 65.7406 307.785C68.3086 298.469 89.6868 295.945 90.5047 309.498C90.5781 310.711 90.6976 311.984 90.858 313.308C91.5564 319.131 92.9966 325.9 94.4858 332.729L94.5374 332.965C97.1 344.71 99.7821 356.588 99.0348 364.03H99.0429Z"
      fill="#FA3D7C"
    />
    <path
      d="M88.2791 425.843C91.0998 428.734 95.2684 430.335 99.1082 431.915C99.8989 432.241 100.728 432.607 101.116 433.421C101.307 433.826 101.32 434.304 101.092 434.686C100.73 435.289 100.04 435.302 99.4207 435.292C93.426 435.18 88.1134 435.916 81.4339 434.96C79.605 434.7 77.711 434.887 75.9229 434.464C75.2163 434.298 74.7272 433.655 74.7489 432.93C74.787 431.717 74.8712 430.411 74.9527 429.07C75.0016 428.251 75.0478 427.417 75.0805 426.584C75.1756 424.147 74.6511 419.464 74.1891 416.492L82.8225 420.282L83.4312 420.33L85.347 413.588C85.347 413.683 85.5508 420.686 85.5589 420.778C85.578 421.017 85.616 421.253 85.6704 421.487C85.8253 422.163 86.1106 422.814 86.453 423.422C86.8959 424.206 87.4231 424.915 88.0182 425.561C88.1052 425.656 88.1922 425.748 88.2818 425.84L88.2791 425.843Z"
      fill="#FBC7B1"
    />
    <path
      d="M101.067 434.249C101.532 434.133 101.804 434.83 101.336 434.95C97.0674 436.035 92.6895 436.125 88.3117 435.894C83.8116 435.658 79.3278 435.262 74.8196 435.186C74.3413 435.178 74.2652 434.431 74.7462 434.439C79.0425 434.513 83.3198 434.852 87.6052 435.107C92.1134 435.376 96.6625 435.368 101.067 434.247V434.249Z"
      fill="#190109"
    />
    <path
      d="M75.1484 427.458C82.3795 431.014 83.2328 435.148 83.2328 435.148L75.4609 434.827C73.4663 432.577 75.1484 427.458 75.1484 427.458Z"
      fill="#190109"
    />
    <path
      d="M95.0456 430.064C96.4206 430.514 97.6543 431.345 100.1 432.233C102.019 432.93 103.198 434.572 98.4994 435.194C93.801 435.815 88.7846 435.4 88.7846 435.4C88.7846 435.4 92.6923 429.293 95.0456 430.061V430.064Z"
      fill="#190109"
    />
    <path
      d="M19.7341 349.566C27.2506 352.421 48.6179 360.898 56.3409 367.779C65.7813 376.19 66.1672 395.728 54.0447 386.114C51.1451 383.815 48.2239 381.372 45.4412 378.859C36.528 370.803 26.0875 364.291 19.4108 360.488C18.8184 360.127 17.5194 359.823 14.9025 359.438C10.5165 358.789 5.38871 358.843 2.12777 359.446C1.36417 359.587 7.14962 352.492 13.4677 349.479C14.9813 348.757 18.8184 348.456 19.9271 347.213C20.3646 346.721 19.2939 349.297 19.7341 349.563V349.566Z"
      fill="#FBC7B1"
    />
    <path
      d="M0.641326 359.389C0.355994 359.717 -0.209236 359.337 0.0788139 359.006C2.69572 355.985 5.91318 353.648 9.29641 351.553C12.772 349.398 16.321 347.37 19.7205 345.09C20.082 344.849 20.5249 345.364 20.1608 345.609C16.9216 347.78 13.5574 349.742 10.2312 351.773C6.73113 353.909 3.34519 356.273 0.644044 359.389H0.641326Z"
      fill="#190109"
    />
    <path
      d="M23.4869 351.021C16.2504 352.117 13.4677 349.479 13.4677 349.479L19.4271 345.69C22.082 346.333 23.4869 351.021 23.4869 351.021Z"
      fill="#190109"
    />
    <path
      d="M7.30451 359.386C6.04633 359.764 4.69576 359.783 2.41039 360.388C0.619586 360.863 -1.11415 360.249 2.06527 357.353C5.24469 354.454 9.19858 352.164 9.19858 352.164C9.19858 352.164 9.45945 358.74 7.30451 359.386Z"
      fill="#190109"
    />
    <path
      d="M52.012 364.611C54.8246 368.118 56.9061 372.124 58.1725 376.435C58.2594 376.728 58.7214 376.603 58.6344 376.307C57.3437 371.915 55.2159 367.847 52.349 364.275C52.156 364.036 51.8191 364.375 52.012 364.611Z"
      fill="#FC9171"
    />
    <path
      d="M62.7215 275.813C53.2566 280.566 43.5934 289.143 37.1068 295.174C34.1258 297.948 24.0658 312.877 24.0658 312.877L30.6311 320.36C30.6311 320.36 41.1911 308.13 47.6614 303.295C53.0854 299.243 60.0665 296.035 67.5558 293.233C75.4256 290.288 77.499 276.475 77.499 276.475C77.499 276.475 66.0232 274.155 62.7188 275.813H62.7215Z"
      fill="#9C3DFA"
    />
    <path
      d="M30.6311 320.363C30.4925 320.618 30.1501 320.615 29.6854 320.404C29.5523 320.341 29.4055 320.265 29.2506 320.167C28.5224 319.72 27.6012 318.908 26.6691 317.844C25.8783 316.94 25.2098 316.006 24.7397 315.187C24.5413 314.842 24.381 314.516 24.2587 314.223C24.1853 314.047 24.1255 313.881 24.0821 313.729C24.0277 313.528 23.9951 313.352 23.9951 313.203C23.9951 313.132 24.0032 313.067 24.0168 313.01C24.0277 312.961 24.044 312.918 24.0658 312.882C24.1989 312.646 24.5033 312.633 24.9217 312.806C25.2098 312.926 25.5522 313.135 25.9299 313.417C25.9326 313.417 25.9408 313.422 25.9435 313.428C26.5685 313.903 27.2914 314.584 28.0196 315.417C28.4082 315.863 28.7669 316.313 29.0876 316.753C29.5441 317.377 29.9246 317.982 30.1963 318.52C30.392 318.903 30.536 319.25 30.6202 319.546C30.7208 319.907 30.7317 320.189 30.6311 320.368V320.363Z"
      fill="#190109"
    />
    <path
      d="M83.0453 271.658C83.0453 271.658 95.7059 267.792 101.839 258.786C104.13 255.421 107.622 236.833 107.622 236.833L117.532 235.799C117.532 235.799 117.609 258.531 111.826 265.968C103.269 276.975 92.5374 290.609 92.5374 290.609L83.048 271.658H83.0453Z"
      fill="#9C3DFA"
    />
    <path
      d="M116.826 235.327C116.426 235.186 115.888 235.082 115.255 235.02C114.312 234.93 113.166 234.936 111.97 235.058C110.263 235.232 108.867 235.612 108.136 236.038C107.693 236.296 107.494 236.573 107.619 236.833C107.706 237.015 107.945 237.172 108.299 237.297C108.994 237.547 110.141 237.68 111.467 237.661C112.013 237.653 112.589 237.62 113.176 237.561C114.277 237.449 115.253 237.254 116 237.015C116.456 236.868 116.829 236.708 117.098 236.54C117.481 236.298 117.647 236.043 117.53 235.799C117.511 235.761 117.486 235.723 117.454 235.685C117.331 235.547 117.117 235.424 116.829 235.324L116.826 235.327Z"
      fill="#190109"
    />
    <path
      d="M114.179 223.188C114.098 223.188 114.027 223.235 113.962 223.281C113.372 223.718 113.122 224.486 113.054 225.213C112.997 225.816 113.041 226.424 113 227.029C113 227.048 113 227.067 113 227.086C112.475 227.651 111.826 228.101 111.108 228.386C110.649 228.568 110.163 228.685 109.717 228.897C108.943 229.26 108.323 229.925 107.972 230.704C107.752 231.19 107.638 231.725 107.652 232.26C107.663 232.631 107.739 233.009 107.891 233.345C109.244 235.582 110.894 235.332 112.614 234.632C112.66 234.613 112.706 234.594 112.75 234.575C113.239 234.371 113.733 234.132 114.228 233.91C115.269 233.416 116.293 232.884 117.299 232.319C118.28 231.768 119.255 231.171 120.016 230.343C120.264 230.077 120.478 229.792 120.671 229.491C121.851 227.653 122.076 225.262 121.916 223.045C121.902 222.876 121.853 222.665 121.687 222.629C121.617 222.613 121.543 222.637 121.476 222.67C120.853 222.939 120.467 223.574 120.253 224.214C120.038 224.855 119.951 225.536 119.706 226.169C119.606 226.435 119.475 226.684 119.331 226.929C119.497 225.452 119.345 223.905 119.046 222.447C119.008 222.266 118.927 222.046 118.744 222.032C118.666 222.027 118.587 222.065 118.519 222.103C117.888 222.477 117.562 223.216 117.424 223.935C117.364 224.233 117.331 224.535 117.299 224.836C117.168 224.095 116.984 223.365 116.763 222.659C116.709 222.485 116.606 222.274 116.421 222.276C116.342 222.276 116.269 222.323 116.204 222.369C115.614 222.806 115.364 223.571 115.296 224.301C115.228 225.031 115.304 225.772 115.206 226.5C115.201 226.535 115.193 226.57 115.187 226.608C115.073 225.577 114.834 224.548 114.527 223.568C114.473 223.392 114.369 223.183 114.185 223.186L114.179 223.188Z"
      fill="#FBC7B1"
    />
    <path
      d="M108.299 237.3C108.994 237.55 110.141 237.683 111.467 237.664C112.013 237.656 112.589 237.623 113.176 237.563C114.277 237.452 115.253 237.257 116 237.018L115.255 235.02L114.747 233.657L107.646 232.26L108.136 236.038L108.299 237.297V237.3Z"
      fill="#FBC7B1"
    />
    <path
      d="M111.375 234.36C111.261 234.374 111.304 234.545 111.415 234.531C112.614 234.385 113.793 234.217 114.905 233.717C115.008 233.671 114.924 233.516 114.82 233.562C113.725 234.054 112.557 234.214 111.375 234.358V234.36Z"
      fill="#FC9171"
    />
    <path
      d="M112.945 226.494C112.883 227.026 112.986 227.545 113.244 228.014C113.299 228.115 113.454 228.028 113.399 227.93C113.155 227.485 113.065 227.005 113.122 226.5C113.136 226.386 112.959 226.383 112.945 226.494Z"
      fill="#FC9171"
    />
    <path
      d="M115.147 226.351C115.19 226.896 115.291 227.428 115.451 227.949C115.484 228.058 115.657 228.017 115.622 227.909C115.467 227.401 115.367 226.885 115.323 226.356C115.315 226.245 115.138 226.239 115.147 226.351Z"
      fill="#FC9171"
    />
    <path
      d="M117.217 224.594C117.258 225.555 117.432 226.489 117.747 227.398C117.785 227.504 117.956 227.463 117.918 227.358C117.609 226.462 117.432 225.547 117.394 224.597C117.388 224.483 117.212 224.478 117.217 224.592V224.594Z"
      fill="#FC9171"
    />
    <path
      d="M30.199 318.514C29.5278 319.103 29.4409 319.568 29.2534 320.165C29.1256 320.569 28.9517 321.033 28.5169 321.633C27.5577 322.966 23.1445 327.393 22.775 326.986C22.5059 326.693 22.8049 325.569 23.3674 324.502C23.5195 324.182 23.5685 323.962 23.5413 323.815C21.3103 325.523 17.9596 327.819 17.4868 327.208C17.0574 326.655 18.8917 324.958 20.7776 323.422L20.6907 323.343C18.1988 324.988 14.6851 327.021 14.196 326.299C13.6633 325.512 16.4813 323.368 18.8646 321.717L18.7722 321.636C18.7722 321.636 18.7423 321.655 18.7314 321.666C16.4433 323.21 12.8046 325.357 12.2829 324.586C12.2421 324.524 12.2204 324.453 12.2204 324.377C12.2204 323.471 14.8563 321.484 16.9596 320.021C17.6037 319.359 17.37 319.245 17.0738 319.264C16.9243 319.296 16.7775 319.326 16.6335 319.35C15.1933 319.614 14.0275 319.587 13.7992 319.169C13.2802 318.219 17.1417 317.231 19.7885 315.784C21.1798 315.027 22.4326 314.964 24.2668 314.218C24.775 314.014 25.3266 313.754 25.9381 313.412C25.9408 313.412 25.9489 313.417 25.9517 313.422C26.5767 313.897 27.2995 314.579 28.0278 315.412C28.4164 315.857 28.7751 316.308 29.0958 316.747C29.5523 317.372 29.9327 317.977 30.2045 318.514H30.199Z"
      fill="#FBC7B1"
    />
    <path
      d="M58.4035 291.67C58.4035 291.67 65.3873 307.804 64.2406 310.898C63.0938 313.995 68.2189 313.811 73.2435 313.203C78.268 312.595 89.3607 313.794 90.5102 313.577C91.6569 313.36 91.3064 308.518 91.8797 305.939C92.4531 303.361 95.3825 295.994 93.1868 292.088C90.9911 288.182 96.5755 285.12 96.5755 285.12L85.5725 271.658L60.9253 278.077L58.4035 291.67Z"
      fill="#9C3DFA"
    />
    <path
      d="M78.4528 269.815C78.2653 268.954 78.1077 268.107 77.9854 267.418C77.9365 267.146 77.8958 266.902 77.8577 266.688C77.7707 266.169 77.7218 265.849 77.7218 265.849L72.7027 264.473L72.4771 264.41L72.3793 264.383L72.1266 264.313L69.3195 263.545C69.3195 263.561 69.8195 267.445 69.3548 275.034C69.2352 276.964 71.7326 279.768 77.7082 278.617C83.4312 277.515 80.2572 274.858 79.6322 273.718C79.336 273.178 79.0479 272.26 78.7871 271.237C78.6702 270.775 78.5588 270.292 78.4555 269.812L78.4528 269.815Z"
      fill="#FBC7B1"
    />
    <path
      d="M72.9853 264.714C72.757 264.579 72.5804 264.473 72.4771 264.41C72.4092 264.37 72.3739 264.348 72.3739 264.348C72.3739 264.362 72.3766 264.372 72.3793 264.383C72.3875 264.424 72.3956 264.467 72.401 264.508C73.1945 268.897 77.3196 270.721 78.7843 271.237C78.6675 270.775 78.5561 270.292 78.4528 269.812C78.2653 268.951 78.1077 268.105 77.9854 267.415C76.6783 266.878 74.1484 265.401 72.9853 264.712V264.714Z"
      fill="#FC9171"
    />
    <path
      d="M67.2026 263.493C67.2026 263.493 74.1783 270.824 81.4502 268.335C88.7248 265.849 82.8469 254.381 78.0153 251.227C73.1864 248.07 58.0937 248.963 67.1998 263.493H67.2026Z"
      fill="#FBC7B1"
    />
    <path
      d="M71.8059 266.802C71.7081 266.745 71.6048 266.886 71.7027 266.943C73.8821 268.205 76.3414 268.894 78.8604 268.941C78.9718 268.941 78.9909 268.77 78.8795 268.767C76.3903 268.721 73.9582 268.048 71.8032 266.799L71.8059 266.802Z"
      fill="#FC9171"
    />
    <path
      d="M78.6702 260.735C78.5914 260.814 78.7164 260.936 78.7979 260.857C79.0344 260.621 79.4583 260.475 79.2979 260.068C79.1322 259.655 78.5833 259.264 78.2735 258.966C77.8305 258.542 77.3441 258.116 77.0207 257.589C76.7707 257.182 76.7381 256.694 76.9283 256.327C76.9474 256.292 76.9283 256.248 76.8876 256.238C76.8332 256.221 76.7734 256.246 76.749 256.297C76.5723 256.645 76.5615 257.076 76.7598 257.483C77.0343 258.045 77.5316 258.499 77.9773 258.925C78.2055 259.145 78.4392 259.362 78.6621 259.59C78.7545 259.685 78.9284 259.815 78.9854 259.94C79.2028 260.423 78.8931 260.513 78.6729 260.733L78.6702 260.735Z"
      fill="#FC9171"
    />
    <path
      d="M73.3603 257.098C72.8848 257.502 72.7706 258.146 73.0043 258.42C73.238 258.694 73.6755 258.428 74.1511 258.024C74.6266 257.619 74.9609 257.234 74.7272 256.96C74.4935 256.685 73.8386 256.694 73.363 257.095L73.3603 257.098Z"
      fill="#FC9171"
    />
    <path
      d="M78.037 254.319C77.5017 254.642 77.2843 255.258 77.4718 255.567C77.6593 255.877 78.1322 255.681 78.6648 255.361C79.2001 255.038 79.5914 254.712 79.4039 254.403C79.2164 254.093 78.5697 253.998 78.0343 254.319H78.037Z"
      fill="#FC9171"
    />
    <path
      d="M74.9256 258.879C74.6783 259.042 74.6701 259.457 74.9011 259.81C75.1348 260.16 75.5234 260.315 75.768 260.152C76.0153 259.989 76.0234 259.574 75.7924 259.221C75.5587 258.871 75.1701 258.716 74.9256 258.879Z"
      fill="#190109"
    />
    <path
      d="M78.5887 256.414C78.3414 256.577 78.3332 256.992 78.5642 257.345C78.7979 257.695 79.1865 257.85 79.4311 257.687C79.6784 257.524 79.6865 257.109 79.4556 256.756C79.2219 256.406 78.8333 256.251 78.5887 256.414Z"
      fill="#190109"
    />
    <path
      d="M71.8766 258.053C71.9119 257.728 71.7489 257.416 71.7027 257.09C71.5831 256.235 72.2733 255.472 73.0234 255.041C73.7707 254.609 74.6348 254.357 75.2843 253.787C76.5805 252.649 76.4881 250.307 75.1076 249.273L71.469 249.24C68.8032 249.096 66.0422 249.631 63.8302 251.124C61.6209 252.619 60.0421 255.155 60.0693 257.82C60.0801 258.898 60.3437 259.954 60.6535 260.985C61.0774 262.396 61.6073 263.808 62.5177 264.97C63.4253 266.131 64.7677 267.027 66.2433 267.103C67.6754 267.179 69.6293 266.867 69.4716 265.442C69.2325 263.273 70.6863 262.369 69.9907 261.115C69.8711 260.898 69.7271 260.684 69.7026 260.437C69.5912 259.305 71.7597 259.18 71.8793 258.048L71.8766 258.053Z"
      fill="#190109"
    />
    <path
      d="M67.0096 261.381C66.5939 262.554 67.4553 263.927 68.9336 264.448C70.4119 264.97 71.9445 264.443 72.3603 263.27C72.7761 262.098 71.9146 260.724 70.4363 260.203C68.9581 259.682 67.4254 260.209 67.0096 261.381Z"
      fill="#FBC7B1"
    />
    <path
      d="M68.6917 264.294C67.8874 264.033 67.4009 263.346 67.0939 262.592C67.0504 262.489 66.8819 262.538 66.9254 262.641C67.2406 263.409 67.7162 264.109 68.5178 264.416C69.4635 264.777 70.6537 264.818 71.6076 264.481C71.7135 264.443 71.6646 264.275 71.5586 264.313C70.6592 264.63 69.5966 264.584 68.6917 264.294Z"
      fill="#FC9171"
    />
    <path
      d="M70.6673 262.155C70.6157 261.919 70.3032 261.734 70.1102 261.631C70.0097 261.577 69.9255 261.731 70.026 261.783C70.1564 261.854 70.4309 261.992 70.4744 262.141C70.5151 262.28 70.4037 262.478 70.3847 262.622C70.3521 262.88 70.4309 263.121 70.5858 263.325C70.6537 263.414 70.8032 263.325 70.7353 263.232C70.5831 263.037 70.5124 262.798 70.5749 262.554C70.6075 262.418 70.6999 262.299 70.6673 262.152V262.155Z"
      fill="#FC9171"
    />
    <path
      d="M70.0695 260.019C69.9581 260 69.9146 260.171 70.026 260.187C70.2896 260.23 70.5287 260.328 70.7488 260.48C70.8412 260.545 70.9255 260.39 70.8331 260.328C70.6021 260.168 70.3439 260.062 70.0695 260.019Z"
      fill="#FC9171"
    />
    <path
      d="M63.5068 260.581C64.2134 259.454 65.3819 258.778 66.5422 258.192C67.4689 257.722 68.6809 257.318 69.3004 256.428C69.9744 255.459 69.132 254.327 69.7053 253.341C70.4309 252.09 72.0831 252.041 73.2761 251.526C74.1864 251.132 75.0261 250.291 74.8305 249.227C74.8169 249.156 74.7082 249.186 74.7218 249.256C75.0315 250.939 73.0451 251.515 71.8304 251.876C70.988 252.128 70.0749 252.486 69.6075 253.284C68.9961 254.327 69.9282 255.526 69.0939 256.509C68.3357 257.402 67.0178 257.801 66.0123 258.339C64.3764 259.213 62.4715 260.79 62.8737 262.89C63.0802 263.979 63.9308 264.763 64.4281 265.713C65.0721 266.943 64.7378 268.273 63.9471 269.345C62.4606 271.364 59.5013 272.363 59.0747 275.097C59.0638 275.167 59.1725 275.197 59.1834 275.126C59.5964 272.475 62.4416 271.457 63.9416 269.543C64.5286 268.794 64.9634 267.844 64.8927 266.872C64.8139 265.781 64.0503 264.97 63.5014 264.085C62.7921 262.942 62.7894 261.723 63.5096 260.583L63.5068 260.581Z"
      fill="white"
    />
    <path
      d="M62.7215 275.813C63.0286 275.987 72.2978 281.152 79.73 278.764C84.8198 277.127 84.0942 273.522 83.0453 271.658C80.3822 272.225 77.5941 272.342 74.7652 272.366C70.2081 272.404 66.1319 274.266 62.7215 275.813Z"
      fill="#FBC7B1"
    />
    <path
      d="M78.3686 275.596C77.48 276.288 76.0723 276.215 75.0125 276.101C72.9337 275.878 70.9717 274.98 69.4309 273.574C69.3765 273.525 69.3086 273.615 69.3629 273.663C71.1103 275.259 73.4065 276.204 75.7761 276.264C76.7734 276.291 77.9365 276.237 78.6729 275.471C79.5344 274.575 79.5316 273.262 79.336 272.116C79.3251 272.046 79.211 272.059 79.2246 272.13C79.4284 273.321 79.423 274.776 78.3686 275.593V275.596Z"
      fill="white"
    />
    <path
      d="M77.5425 276.06C77.4338 276.112 77.4175 276.296 77.5017 276.475C77.5859 276.655 77.7408 276.758 77.8495 276.706C77.9582 276.655 77.9745 276.47 77.8903 276.291C77.8061 276.112 77.6512 276.009 77.5425 276.06Z"
      fill="white"
    />
    <path
      d="M81.3224 261.759C81.317 262.098 81.2762 262.524 81.1404 262.828C80.9501 263.254 80.5996 263.653 79.9719 263.868C79.2735 264.106 78.6947 264.025 78.2381 263.827C77.9664 263.71 77.6811 263.469 77.4555 263.246C77.3685 263.162 77.3441 263.045 77.3713 262.945C77.4012 262.828 77.4935 262.728 77.6321 262.709C77.6647 262.703 77.7001 262.698 77.7354 262.692C77.7517 262.692 77.768 262.687 77.7843 262.684C77.8359 262.676 77.8903 262.668 77.9446 262.657C77.9664 262.654 77.9881 262.649 78.0099 262.646C78.1865 262.614 78.3822 262.573 78.5887 262.519C78.6566 262.502 78.7246 262.483 78.7925 262.464C78.8278 262.456 78.8604 262.445 78.8957 262.434C78.9311 262.424 78.9664 262.415 79.0017 262.405C79.0371 262.394 79.0724 262.383 79.1077 262.372C79.143 262.361 79.1784 262.35 79.2164 262.337C79.268 262.32 79.3197 262.301 79.3713 262.285C79.4121 262.269 79.4528 262.255 79.4963 262.239C79.5887 262.204 79.6865 262.166 79.7816 262.125C79.8142 262.111 79.8496 262.095 79.8849 262.079C80.0099 262.022 80.1376 261.962 80.2626 261.897C80.317 261.87 80.3713 261.84 80.4257 261.81C80.4692 261.786 80.5154 261.761 80.5588 261.734C80.5779 261.723 80.5942 261.712 80.6132 261.702C80.6539 261.677 80.6947 261.653 80.7327 261.628C80.7844 261.596 80.8387 261.56 80.8904 261.525C80.9909 261.457 81.1105 261.465 81.1974 261.522C81.2735 261.571 81.3252 261.655 81.3224 261.759Z"
      fill="#190109"
    />
    <path
      d="M81.1977 261.52C80.7738 262.082 80.0673 262.806 79.1923 262.939C78.4939 263.045 77.8526 263.013 77.3716 262.945C77.4015 262.828 77.4938 262.728 77.6324 262.709C77.665 262.703 77.7004 262.698 77.7357 262.692C77.752 262.692 77.7683 262.687 77.7846 262.684C77.8362 262.676 77.8906 262.668 77.9449 262.657C77.9667 262.654 77.9884 262.649 78.0102 262.646C78.1868 262.614 78.3825 262.573 78.589 262.519C78.6569 262.502 78.7249 262.486 78.7928 262.464C78.8281 262.456 78.8607 262.445 78.8961 262.434C78.9314 262.424 78.9667 262.415 79.002 262.405C79.0374 262.394 79.0727 262.383 79.108 262.372C79.1433 262.361 79.1787 262.35 79.2167 262.337C79.2683 262.32 79.32 262.301 79.3716 262.285C79.4124 262.269 79.4531 262.255 79.4966 262.239C79.589 262.204 79.6868 262.166 79.7819 262.125C79.8146 262.111 79.8499 262.095 79.8852 262.079C80.0102 262.022 80.1379 261.962 80.2629 261.897C80.3173 261.87 80.3716 261.84 80.426 261.81C80.4695 261.786 80.5157 261.761 80.5591 261.734C80.5782 261.723 80.5945 261.712 80.6135 261.702C80.6542 261.677 80.695 261.653 80.7331 261.628C80.7847 261.596 80.839 261.56 80.8907 261.525C80.9912 261.457 81.1108 261.465 81.1977 261.522V261.52Z"
      fill="white"
    />
    <path
      d="M81.1377 262.828C80.9474 263.254 80.5969 263.653 79.9692 263.868C79.2708 264.106 78.692 264.025 78.2354 263.827C78.4963 263.585 79.0181 263.194 79.7273 263.089C79.7273 263.089 80.5561 262.38 81.1377 262.828Z"
      fill="#E55A4D"
    />
    <path
      d="M81.1377 343.882C80.4991 343.535 79.8496 343.209 79.1892 342.905C80.1621 341.016 81.6648 339.439 83.3768 338.174C86.6405 335.766 90.5428 334.092 94.5401 332.965L94.4885 332.729C90.3471 333.894 86.2872 335.642 82.9665 338.188C81.3333 339.439 79.9094 340.986 78.9718 342.807C74.6919 340.883 69.9907 339.925 65.2976 339.922C60.2595 339.922 55.2485 341.027 50.7212 343.201L50.5364 343.557C58.1888 339.797 67.2705 339.13 75.4229 341.708C76.5914 342.077 77.7436 342.512 78.8686 343.014C78.7327 343.293 78.6077 343.578 78.4963 343.869C78.3849 344.156 78.2843 344.452 78.2001 344.754C77.8468 345.983 77.7109 347.324 77.9365 348.589C78.0751 349.373 78.4093 349.802 78.9474 350.09C79.1974 350.223 79.4882 350.326 79.8251 350.418C79.999 350.467 80.1811 350.513 80.3713 350.551C81.5507 350.806 82.9882 350.893 83.9258 350.25H83.9312C84.3497 349.954 84.6649 349.52 84.8198 348.893C85.4041 346.453 82.9475 344.87 81.1377 343.88V343.882ZM83.3524 350.234H83.3469C82.9121 350.443 82.404 350.546 81.8605 350.53C81.567 350.521 81.2328 350.494 80.8822 350.443C80.2355 350.35 79.5479 350.169 79.0235 349.835C78.6403 349.593 78.3496 349.27 78.23 348.839C77.8495 347.465 78.1023 345.823 78.5316 344.498C78.586 344.327 78.6458 344.159 78.7083 343.994C78.8224 343.695 78.9501 343.399 79.0914 343.114C80.0398 343.546 80.9637 344.029 81.8578 344.563C83.0372 345.272 84.279 346.187 84.5915 347.614C84.8606 348.86 84.2899 349.786 83.3578 350.234H83.3524Z"
      fill="white"
    />
    <path
      d="M69.0287 360.61C70.7923 359.856 72.7027 359.609 74.5995 359.921C76.3169 360.203 77.7816 361.064 79.2979 361.864C81.7898 363.181 84.5372 363.778 87.3497 363.474C88.6677 363.333 89.9667 363.004 91.1895 362.491C92.0102 362.147 93.5292 361.607 93.8662 360.673C94.0537 360.152 93.7602 359.405 93.1107 359.503C92.3852 359.612 92.2167 360.597 92.271 361.18C92.589 364.497 96.6434 364.638 99.1054 364.258C99.2576 364.234 99.1924 364.006 99.0429 364.028C97.3717 364.286 95.445 364.462 93.9749 363.441C93.2847 362.964 92.714 362.231 92.5428 361.398C92.4585 361.088 92.4721 360.787 92.5863 360.496C92.6651 359.796 92.9042 359.975 93.3091 361.039C93.2086 361.24 92.4966 361.582 92.2656 361.71C89.7058 363.108 86.6677 363.602 83.7899 363.156C82.3687 362.937 81.0154 362.475 79.7382 361.824C78.5642 361.227 77.4446 360.515 76.1946 360.081C73.8114 359.253 71.219 359.419 68.9118 360.404C68.7705 360.464 68.8928 360.67 69.0314 360.61H69.0287Z"
      fill="white"
    />
    <path
      d="M60.7676 319.82C67.4662 320.862 72.1076 326.69 78.7191 328.014C80.0887 328.289 81.5072 328.362 82.8877 328.101C83.9149 327.906 85.6106 327.477 86.1242 326.443C86.3932 325.905 86.1758 325.183 85.4992 325.091C84.4964 324.955 84.8959 326.302 85.116 326.809C86.5345 330.053 90.6352 329.309 93.3227 328.59C93.4722 328.549 93.407 328.318 93.2602 328.359C91.5591 328.815 89.6378 329.366 87.8878 328.823C87.1568 328.598 86.4747 328.199 85.953 327.634C85.6133 327.265 85.3443 326.836 85.2057 326.351C85.1377 326.139 85.0997 325.919 85.0997 325.691C85.8389 326.18 85.9584 326.557 85.4611 326.823C84.5127 327.868 82.2056 328.05 80.904 328.025C79.3333 327.995 77.7816 327.618 76.3142 327.075C70.9037 325.067 66.6808 320.504 60.8302 319.592C60.6807 319.568 60.6155 319.798 60.7676 319.823V319.82Z"
      fill="white"
    />
    <path
      d="M59.504 296.879C61.3356 295.682 63.3927 295.052 65.5802 295.022C65.7351 295.022 65.7351 294.781 65.5802 294.783C63.3519 294.813 61.2459 295.454 59.3845 296.672C59.2567 296.757 59.3763 296.963 59.504 296.879Z"
      fill="white"
    />
    <path
      d="M92.8281 284.16C92.0238 286.407 91.983 288.502 92.6977 290.78C92.7439 290.926 92.9749 290.864 92.9287 290.717C92.2303 288.489 92.2738 286.421 93.0591 284.225C93.1108 284.081 92.8798 284.018 92.8281 284.162V284.16Z"
      fill="white"
    />
    <path
      d="M70.6238 298.955C73.3386 301.287 78.0072 300.301 80.8931 298.841C81.0317 298.771 80.9094 298.564 80.7735 298.635C77.9963 300.041 73.4147 301.037 70.795 298.787C70.6782 298.686 70.5097 298.855 70.6266 298.955H70.6238Z"
      fill="white"
    />
    <path
      opacity="0.8"
      d="M158.512 203.648C161.379 200.733 166.759 191.097 158.378 187.308C149.998 183.519 152.512 209.75 158.512 203.648Z"
      fill="white"
    />
    <path
      opacity="0.4"
      d="M324.246 112.046V82.2377C324.246 78.2314 320.993 74.9824 316.983 74.9824H293.169C289.62 74.9824 287.789 79.2547 290.267 81.7899C291.566 83.1172 293.458 84.4906 296.205 85.7527C305.86 90.1906 319.684 116.386 323.741 113.162C324.075 112.896 324.244 112.472 324.244 112.046H324.246Z"
      fill="white"
    />
    <path
      d="M218.2 198.116V253.958C218.2 261.463 224.293 267.548 231.807 267.548H276.416C283.063 267.548 286.498 259.544 281.851 254.796C279.416 252.307 275.873 249.74 270.729 247.375C252.644 239.062 226.744 189.99 219.143 196.029C218.516 196.526 218.2 197.318 218.2 198.119V198.116Z"
      fill="#FFE0C6"
    />
  </g>
  <defs>
    <clipPath id="clip0_4_9">
      <rect
        width="495"
        height="436"
        fill="white"
      />
    </clipPath>
  </defs>
</svg>
