<svg
  width="157"
  height="61"
  viewBox="0 0 157 61"
  fill="none"
  xmlns="http://www.w3.org/2000/svg"
>
  <path
    d="M17.6903 10.1341C22.4959 -2.08873 40.0259 -2.08873 44.8315 10.1341C46.2873 13.8369 49.3063 16.7704 53.0637 18.079C65.2753 22.3319 65.2753 39.602 53.0637 43.855C49.3063 45.1635 46.2873 48.097 44.8315 51.7999C40.0259 64.0227 22.4959 64.0227 17.6903 51.7999C16.2345 48.097 13.2155 45.1635 9.45814 43.855C-2.75354 39.602 -2.75354 22.3319 9.45813 18.079C13.2155 16.7704 16.2345 13.8369 17.6903 10.1341Z"
    fill="#FA3D7C"
  />
  <path
    d="M82.2224 40.423C82.4997 38.4603 82.6597 34.8763 82.7024 29.671C82.7024 25.9377 82.5637 23.0363 82.2864 20.967C83.7584 20.711 85.6144 20.583 87.8544 20.583C89.7104 20.583 91.3851 20.7643 92.8784 21.127C94.3931 21.4897 95.7691 22.0763 97.0064 22.887C98.2437 23.6763 99.2037 24.7963 99.8864 26.247C100.569 27.6977 100.91 29.4363 100.91 31.463C100.91 34.663 99.9504 37.2977 98.0304 39.367C96.1104 41.415 93.3797 42.439 89.8384 42.439C86.5744 42.439 84.0357 41.767 82.2224 40.423ZM87.5344 23.879C87.6197 25.1377 87.6624 26.631 87.6624 28.359C87.6624 32.519 87.5131 35.8363 87.2144 38.311C88.3877 38.9083 89.4864 39.207 90.5104 39.207C92.1744 39.207 93.4437 38.535 94.3184 37.191C95.2144 35.8257 95.6624 34.1297 95.6624 32.103C95.6624 29.351 95.0864 27.2817 93.9344 25.895C92.8037 24.487 91.1717 23.783 89.0384 23.783C88.5264 23.783 88.0251 23.815 87.5344 23.879Z"
    fill="#190109"
  />
  <path
    d="M106.036 25.479C105.225 25.479 104.532 25.2017 103.956 24.647C103.401 24.071 103.124 23.3457 103.124 22.471C103.124 21.639 103.423 20.935 104.02 20.359C104.617 19.783 105.311 19.495 106.1 19.495C106.889 19.495 107.561 19.783 108.116 20.359C108.692 20.935 108.98 21.639 108.98 22.471C108.98 23.3243 108.681 24.039 108.084 24.615C107.487 25.191 106.804 25.479 106.036 25.479ZM106.1 26.823C106.911 26.823 107.54 26.9617 107.988 27.239C108.436 27.5163 108.66 28.0603 108.66 28.871C108.66 28.999 108.617 29.9377 108.532 31.687C108.468 33.4363 108.436 34.7483 108.436 35.623C108.436 38.6523 108.617 40.711 108.98 41.799C108.084 42.0763 107.199 42.215 106.324 42.215C105.321 42.215 104.617 42.0443 104.212 41.703C103.828 41.3403 103.636 40.8177 103.636 40.135C103.636 39.7937 103.647 38.9937 103.668 37.735C103.711 36.4763 103.732 35.4737 103.732 34.727C103.732 31.6763 103.657 29.1803 103.508 27.239C104.319 26.9617 105.183 26.823 106.1 26.823Z"
    fill="#190109"
  />
  <path
    d="M113.888 36.327V29.927C112.779 29.9483 111.829 30.023 111.04 30.151C110.869 29.6817 110.784 29.2337 110.784 28.807C110.784 27.5483 111.648 26.919 113.376 26.919H113.824C113.781 25.6177 113.717 24.5297 113.632 23.655C114.315 23.3777 115.093 23.239 115.968 23.239C116.544 23.239 116.992 23.271 117.312 23.335C117.653 23.3777 117.973 23.5483 118.272 23.847C118.592 24.1457 118.752 24.583 118.752 25.159C118.752 25.5003 118.72 26.0977 118.656 26.951C120.875 26.951 122.635 26.8657 123.936 26.695C124.085 26.9937 124.16 27.4523 124.16 28.071C124.16 29.2017 123.531 29.799 122.272 29.863C121.461 29.9057 120.235 29.927 118.592 29.927C118.528 32.039 118.496 34.151 118.496 36.263C118.496 36.775 118.507 37.1697 118.528 37.447C118.549 37.703 118.603 38.023 118.688 38.407C118.795 38.791 118.965 39.0683 119.2 39.239C119.456 39.4097 119.776 39.495 120.16 39.495C121.227 39.495 122.08 39.175 122.72 38.535C123.595 39.1537 124.032 39.783 124.032 40.423C124.032 41.0203 123.659 41.511 122.912 41.895C122.187 42.2577 121.312 42.439 120.288 42.439C117.963 42.439 116.309 41.927 115.328 40.903C114.368 39.879 113.888 38.3537 113.888 36.327Z"
    fill="#190109"
  />
  <path
    d="M126.45 36.327V29.927C125.341 29.9483 124.392 30.023 123.602 30.151C123.432 29.6817 123.346 29.2337 123.346 28.807C123.346 27.5483 124.21 26.919 125.938 26.919H126.386C126.344 25.6177 126.28 24.5297 126.194 23.655C126.877 23.3777 127.656 23.239 128.53 23.239C129.106 23.239 129.554 23.271 129.874 23.335C130.216 23.3777 130.536 23.5483 130.834 23.847C131.154 24.1457 131.314 24.583 131.314 25.159C131.314 25.5003 131.282 26.0977 131.218 26.951C133.437 26.951 135.197 26.8657 136.498 26.695C136.648 26.9937 136.722 27.4523 136.722 28.071C136.722 29.2017 136.093 29.799 134.834 29.863C134.024 29.9057 132.797 29.927 131.154 29.927C131.09 32.039 131.058 34.151 131.058 36.263C131.058 36.775 131.069 37.1697 131.09 37.447C131.112 37.703 131.165 38.023 131.25 38.407C131.357 38.791 131.528 39.0683 131.762 39.239C132.018 39.4097 132.338 39.495 132.722 39.495C133.789 39.495 134.642 39.175 135.282 38.535C136.157 39.1537 136.594 39.783 136.594 40.423C136.594 41.0203 136.221 41.511 135.474 41.895C134.749 42.2577 133.874 42.439 132.85 42.439C130.525 42.439 128.872 41.927 127.89 40.903C126.93 39.879 126.45 38.3537 126.45 36.327Z"
    fill="#190109"
  />
  <path
    d="M150.994 40.327C149.565 41.735 147.687 42.439 145.362 42.439C143.037 42.439 141.159 41.735 139.73 40.327C138.322 38.919 137.618 37.0417 137.618 34.695C137.618 32.2417 138.322 30.279 139.73 28.807C141.159 27.335 143.037 26.599 145.362 26.599C147.687 26.599 149.565 27.335 150.994 28.807C152.423 30.279 153.138 32.2417 153.138 34.695C153.138 37.0417 152.423 38.919 150.994 40.327ZM148.37 35.335C148.37 33.7137 148.103 32.3697 147.57 31.303C147.037 30.215 146.301 29.671 145.362 29.671C144.445 29.671 143.719 30.1083 143.186 30.983C142.674 31.8577 142.418 33.0097 142.418 34.439C142.418 35.847 142.674 37.0203 143.186 37.959C143.719 38.8763 144.445 39.335 145.362 39.335C146.322 39.335 147.058 38.9723 147.57 38.247C148.103 37.5003 148.37 36.5297 148.37 35.335Z"
    fill="#190109"
  />
</svg>
